<svg width="149" height="149" viewBox="0 0 149 149" fill="none" xmlns="http://www.w3.org/2000/svg">
<path d="M66.7283 132.831L8.53491 99.2917V102.621L66.7283 136.46L140.44 93.7851V89.405L66.7283 132.831Z" fill="#6BA7D0"/>
<path d="M99.1665 77.3406C99.2164 77.1906 99.8171 76.9152 100.093 76.7399C99.9925 76.3895 100.067 76.014 100.318 75.9142C100.718 75.7137 101.244 76.3142 101.394 76.6398C101.419 76.6899 101.444 76.715 101.444 76.7649C101.569 77.0654 101.619 77.3157 101.569 77.4911C101.544 77.6661 101.444 77.7913 101.294 77.8412C101.094 77.9165 100.844 77.8412 100.543 77.5661L99.692 78.0667C99.4667 78.1916 99.0664 77.6408 99.1665 77.3406ZM118.564 92.1832C118.564 92.2331 118.539 92.2833 118.539 92.3332C118.539 92.3583 118.539 92.3583 118.539 92.3831C118.539 92.4333 118.514 92.4584 118.489 92.5083C118.489 92.5336 118.464 92.5584 118.464 92.5835C118.439 92.6089 118.439 92.6334 118.414 92.6836C118.389 92.7087 118.389 92.7338 118.364 92.7586C118.339 92.7839 118.339 92.8088 118.314 92.8338C118.289 92.8592 118.264 92.9091 118.239 92.9339C118.239 92.959 118.214 92.959 118.189 92.9841C118.164 93.0089 118.139 93.0591 118.114 93.0839C118.114 93.0839 118.089 93.1092 118.063 93.1092C118.038 93.1341 117.988 93.1842 117.963 93.2091C117.913 93.2592 117.864 93.2843 117.788 93.3092L71.2588 120.166C70.3328 120.692 69.2063 120.692 68.2803 120.166L37.3941 102.345C37.3439 102.32 37.2689 102.27 37.2188 102.22L37.1937 102.195C37.1435 102.17 37.1184 102.12 37.0685 102.095C37.0685 102.095 37.0685 102.07 37.0434 102.07C36.9933 102.02 36.9684 101.995 36.9434 101.944C36.9434 101.944 36.9434 101.944 36.9434 101.919C36.9183 101.869 36.8684 101.819 36.8433 101.769C36.8433 101.769 36.8433 101.769 36.8433 101.744C36.8182 101.694 36.7931 101.644 36.7683 101.594V101.569C36.7432 101.519 36.7432 101.469 36.7181 101.419V101.394C36.7181 101.344 36.693 101.294 36.693 101.244C36.693 101.219 36.693 101.219 36.693 101.194C36.693 101.169 36.693 101.144 36.693 101.118V102.27C36.6429 102.795 36.8934 103.346 37.4189 103.647L68.3054 121.468C69.2314 121.993 70.3579 121.993 71.2839 121.468L117.838 94.6112C118.339 94.3358 118.589 93.8103 118.589 93.3345V92.0831C118.589 92.108 118.589 92.1331 118.564 92.1832ZM107.076 76.1893C107.076 76.1645 107.076 76.1645 107.076 76.1394C107.076 76.1143 107.101 76.0641 107.101 76.0396C107.101 76.0396 107.101 76.0396 107.101 76.0142C107.151 75.8891 107.226 75.789 107.301 75.714L107.326 75.6887C107.527 75.5136 107.827 75.4637 108.152 75.6387L108.503 75.8392C108.603 75.3633 108.528 74.788 108.077 74.6377C107.852 74.5876 107.652 74.6126 107.451 74.7127C107.226 74.8128 107.026 74.9879 106.851 75.2136C106.826 75.2384 106.801 75.2635 106.801 75.2886L106.775 75.3137C106.75 75.339 106.75 75.3636 106.726 75.3636C106.475 75.7142 106.3 76.1396 106.225 76.5402C106.175 76.8404 106.175 77.1156 106.25 77.316C106.25 77.3411 106.275 77.3411 106.275 77.3662C106.275 77.3662 106.275 77.391 106.3 77.391C106.35 77.4662 106.4 77.5412 106.501 77.5914C106.576 77.6413 106.651 77.6666 106.751 77.6666C107.201 77.6917 107.527 77.4662 107.827 77.1409L107.427 76.9159C107.401 76.8906 107.352 76.8658 107.327 76.8407C107.302 76.8156 107.277 76.8156 107.277 76.7908C107.151 76.6656 107.076 76.5154 107.076 76.3403C107.076 76.315 107.076 76.2904 107.076 76.2402C107.051 76.2395 107.051 76.2144 107.076 76.1893ZM119.415 47.8311C117.213 45.2532 114.535 43.0003 111.105 42.3497C108.527 42.0241 107.751 42.7251 105.499 44.0267C105.624 43.9765 105.724 43.9015 105.849 43.8513C107.526 43.0755 109.454 43.3507 111.131 44.0267C113.208 44.8526 115.085 46.3543 116.612 47.9811C120.216 51.8107 123.22 57.9678 122.744 63.3241C122.594 65.0761 121.993 66.9034 120.642 68.1046C120.542 68.2046 120.441 68.2799 120.341 68.3549C120.241 68.4299 120.141 68.5049 120.016 68.555C122.769 66.9781 123.82 66.4276 124.496 63.2238C125.423 57.7677 122.769 51.9609 119.415 47.8311ZM83.6484 33.214C83.7234 33.1889 83.7736 33.1889 83.8486 33.1889C83.8739 33.1889 83.8987 33.1889 83.8987 33.1889C83.9486 33.1889 83.9988 33.1889 84.0239 33.1889C84.049 33.1889 84.0738 33.1889 84.124 33.1889C84.149 33.1889 84.199 33.1889 84.2238 33.1889C84.2491 33.1889 84.299 33.214 84.3239 33.214C84.3492 33.214 84.374 33.214 84.3991 33.2391C84.4242 33.2391 84.449 33.2641 84.4992 33.2641C84.5243 33.2641 84.5491 33.2892 84.5993 33.2892C84.6244 33.2892 84.6492 33.3143 84.6743 33.3143C84.6994 33.3394 84.7495 33.3394 84.7743 33.3645C84.7743 33.3645 84.7743 33.3645 84.7994 33.3645L83.6482 32.6386C83.2225 32.3632 82.6218 32.313 82.1214 32.6135L35.4916 59.5453C34.5656 60.071 34.015 61.0469 34.015 62.1232V78.3923V81.6462V82.0467V96.2884V96.8891V97.765C34.015 97.8402 34.015 97.9152 34.0401 97.9902C34.1151 98.4658 34.3905 98.8413 34.766 99.0665L35.8422 99.7425C35.7171 99.6672 35.5919 99.5421 35.5169 99.442C35.5169 99.442 35.5169 99.442 35.4919 99.4169C35.4668 99.367 35.4417 99.3417 35.4169 99.2918L35.3918 99.2667C35.3667 99.2165 35.3416 99.1914 35.3416 99.1415C35.3416 99.1164 35.3165 99.1164 35.3165 99.0914C35.2914 99.0414 35.2914 99.0164 35.2664 98.9662C35.2664 98.9411 35.2413 98.9163 35.2413 98.8912C35.2413 98.841 35.2162 98.816 35.2162 98.766C35.2162 98.7407 35.2162 98.7159 35.2162 98.7159C35.2162 98.6409 35.1911 98.5907 35.1911 98.5157V62.8488C35.1911 61.7976 35.7668 60.7964 36.668 60.2709L83.2727 33.3642C83.3981 33.289 83.5232 33.2391 83.6484 33.214Z" fill="#F368FF"/>
<path d="M84.7997 80.7199V90.6565L85.3502 90.3311L89.6305 87.8781L91.6827 86.6767L92.3336 86.3012L95.6874 84.3741L97.3144 83.423L97.4143 83.3728V78.8924V73.436L84.7997 80.7199Z" fill="#54FDE7"/>
<path d="M38.8207 37.3188C36.468 38.6702 34.5407 42.2244 34.3155 45.4783C33.3643 46.2042 32.5632 47.5556 32.263 48.9575C32.1378 49.0074 32.0127 49.0575 31.8875 49.1325C30.9615 49.6833 30.1854 51.1599 30.1854 52.4366C30.1854 53.713 30.9361 54.3388 31.8875 53.788C31.4119 54.0634 30.9865 54.0384 30.6861 53.8131L28.008 52.2613L27.9579 52.2111L27.9077 52.161L27.8575 52.1108L27.8074 52.0358L27.7572 51.9608L27.7073 51.8855L27.6571 51.8106L27.607 51.7356L27.5819 51.6355L27.5568 51.5354L27.5317 51.4353L27.5066 51.3352L27.4816 51.2352V51.11V50.9848V50.8597V50.7345V50.6094V50.4842L27.5066 50.359L27.5317 50.2339L27.5568 50.1087L27.5819 49.9836L27.607 49.8584L27.6571 49.7332L27.7073 49.6081L27.7572 49.4829L27.8074 49.3578L27.8575 49.2326L27.9077 49.1074L27.9579 48.9823L28.008 48.8571L28.0579 48.732L28.1332 48.6068L28.1831 48.5067L28.2584 48.4066L28.3334 48.3066L28.4083 48.2065L28.4836 48.1064L28.5586 48.0063L28.6336 47.9313L28.7086 47.8561L28.7838 47.7811L28.8588 47.7061L28.9338 47.6311L29.0088 47.5809L29.0841 47.5308L29.1841 47.4806L29.2092 47.4555H29.2343L29.2594 47.4304L29.2845 47.4054H29.3095L29.3346 47.3803H29.3597L29.3848 47.3552H29.4099H29.435H29.46H29.4851H29.5102H29.5353H29.5604H29.5854L29.6105 47.23L29.6607 47.1049L29.6858 46.9797L29.7357 46.8546L29.7859 46.7294L29.836 46.6042L29.8862 46.4791L29.9363 46.3539L29.9863 46.2288L30.0364 46.1036L30.0866 45.9784L30.1367 45.8533L30.1869 45.7281L30.2371 45.603L30.287 45.4778L30.3622 45.3526L30.4372 45.2275L30.5122 45.1274L30.5872 45.0022L30.6625 44.9022L30.7375 44.8021L30.8125 44.702L30.8877 44.6019L30.9627 44.5019L31.0377 44.4018L31.1127 44.3017L31.1879 44.2267L31.2629 44.1517L31.363 44.0765L31.4383 44.0015L31.5383 43.9265L31.6384 43.8515L31.6635 43.5512L31.7137 43.251L31.7638 42.9508L31.814 42.6505L31.889 42.3503L31.964 42.0501L32.0392 41.7498L32.1393 41.4496L32.2394 41.1494L32.3395 40.8491L32.4646 40.5489L32.5898 40.2486L32.7149 39.9732L32.8401 39.6981L32.9903 39.4227L33.1403 39.1473L33.2906 38.8721L33.4406 38.5967L33.6159 38.3464L33.7912 38.0961L33.9665 37.8458L34.1419 37.5955L34.342 37.3702L34.5422 37.145L34.7426 36.9448L34.9427 36.7444L35.1429 36.5443L35.3433 36.3689L35.5435 36.1936L35.7436 36.0434L35.9689 35.8934L36.1941 35.7682L36.3943 35.6681L36.5947 35.5681L36.7948 35.4928L36.9701 35.4178L37.1703 35.3677L37.3456 35.3175L37.5209 35.2924L37.6963 35.2673L37.8716 35.2422H38.0469H38.2222L38.3722 35.2673L38.5225 35.2924L38.6725 35.3426L38.8227 35.3927L41.3507 36.8445L41.3758 36.8194L41.426 36.7693L41.4761 36.7191L41.5263 36.6689L41.5765 36.6188L41.6264 36.5686L41.6765 36.5184L41.7267 36.4685L41.7769 36.4184L41.827 36.3682L41.8772 36.318L41.9271 36.2929L41.9773 36.2428L42.0274 36.2177L42.0776 36.1675L42.1278 36.1425L42.3031 36.0675L42.4531 35.9925L42.6033 35.9172L42.7533 35.8673L42.9036 35.8171L43.0536 35.7921L43.2038 35.767H43.3538H43.479L43.6041 35.7921L43.7293 35.8171L43.8544 35.8673L46.5325 37.3941C46.6075 37.4191 46.6827 37.4691 46.7577 37.4941C46.232 37.1939 45.5312 37.2438 44.7805 37.6695C44.2048 37.9948 43.6791 38.5205 43.2036 39.146C42.6252 37.0434 40.898 36.1425 38.8207 37.3188ZM67.8047 24.9794L70.5577 26.5563C69.807 25.9057 69.3814 24.7792 69.3814 23.3024C69.3814 23.1524 69.3814 23.0272 69.4064 22.877C69.4064 22.6517 69.4315 22.4516 69.4566 22.2261C69.5068 21.9008 69.5567 21.5755 69.6319 21.2499C69.657 21.1997 69.657 21.1247 69.6821 21.0746C69.7571 20.7493 69.8574 20.4237 69.9823 20.0984C70.0325 19.9732 70.0824 19.823 70.1323 19.673C70.1574 19.6228 70.1825 19.5478 70.2076 19.4977C70.2575 19.3976 70.3076 19.2724 70.3327 19.1721C70.3829 19.072 70.4077 18.9968 70.4579 18.8969C70.4579 18.8719 70.483 18.8468 70.483 18.822C70.583 18.6466 70.6583 18.4465 70.7584 18.2711C70.8585 18.071 70.9836 17.8708 71.1088 17.6704C71.1338 17.6453 71.1589 17.5954 71.1838 17.5704C71.2339 17.4954 71.2838 17.4201 71.3338 17.3451C71.3839 17.2701 71.4338 17.22 71.4589 17.145C71.484 17.0948 71.5342 17.0449 71.559 16.9947C71.6092 16.9197 71.6591 16.8447 71.7092 16.7695C71.9094 16.4943 72.1096 16.244 72.335 15.9934C72.3601 15.9684 72.3852 15.9435 72.3852 15.9184C72.5104 15.7684 72.6604 15.6182 72.7858 15.468C72.7858 15.468 72.7858 15.4429 72.8108 15.4429C72.936 15.2929 73.0862 15.1677 73.2114 15.0426C73.2365 15.0175 73.2864 14.9673 73.3115 14.9425C73.4617 14.8173 73.5869 14.6922 73.7369 14.567C73.762 14.5419 73.787 14.5168 73.8121 14.492C73.8871 14.4418 73.9373 14.3919 74.0123 14.3418C74.1124 14.2668 74.1876 14.2166 74.2877 14.1416L71.5344 12.5647L71.2841 12.7651C69.5318 14.1165 68.1054 16.1941 67.3294 18.2466C66.6534 20.0236 66.2029 22.6267 67.2541 24.3287L67.8047 24.9794ZM73.5613 21.6756C73.6115 21.7257 73.6614 21.7756 73.6865 21.8258C73.7366 21.8757 73.8116 21.9259 73.8618 21.9758C73.8869 21.9758 73.8869 22.0009 73.912 22.0009C73.9869 22.051 74.0622 22.1009 74.1372 22.1511L74.4625 22.3264L74.6378 22.4014L74.9634 22.5015C74.9882 22.5015 75.0133 22.5015 75.0384 22.5266L75.3888 22.5517L76.2398 22.4764L76.9158 22.2512L77.4413 22.0009L77.6163 21.9008C77.6417 21.9008 77.6665 21.8757 77.6665 21.8757C77.7418 21.8258 77.7917 21.8007 77.8669 21.7505C77.8669 21.7505 77.892 21.7505 77.892 21.7255H77.9171L77.9422 21.7004L77.9923 21.6753C78.0921 21.6003 78.1925 21.5501 78.2675 21.4751L78.5426 21.2747C78.818 21.0495 79.0683 20.8243 79.3438 20.5739L79.4937 20.4237L79.569 20.3236C79.6941 20.1736 79.8193 20.0485 79.9445 19.8982L77.1912 18.3213C76.1648 19.5478 74.6882 20.7493 73.0363 20.9745C73.236 21.2251 73.3862 21.4754 73.5613 21.6756ZM112.207 50.7847C111.906 50.7847 111.656 51.035 111.656 51.3352V56.7166L108.653 59.7202C108.452 59.9455 108.452 60.2959 108.653 60.4963C108.878 60.6964 109.228 60.6964 109.428 60.4963L112.582 57.3424C112.682 57.2423 112.757 57.0921 112.757 56.9419V51.3352C112.757 51.035 112.507 50.7847 112.207 50.7847ZM99.1915 35.5919L99.1416 35.5668H99.0915H99.0416H98.9663H98.9164L98.8411 35.5919L98.7661 35.617L98.6909 35.6421L98.6157 35.6672L98.5407 35.7173L98.4654 35.7675L98.4403 35.7926L98.4153 35.8176L98.3899 35.8427L98.3648 35.7926L98.3398 35.8176L98.3147 35.8427L98.2896 35.8678L98.2643 35.8929L98.2392 35.918L98.2141 35.943L98.189 35.9681L98.1639 35.9932L98.1386 36.0183L98.1135 36.0434L98.0884 36.0685L96.9369 35.4176L96.8619 35.3925L96.7867 35.3674L96.7117 35.3423H96.6364H96.6114H96.5361H96.4609H96.3859L96.3106 35.3674L96.2356 35.3925L96.1604 35.4176L96.0851 35.4677L95.9853 35.4928L95.9101 35.543L95.81 35.5931L95.7099 35.6433L95.6098 35.7183L95.51 35.7933L95.4099 35.8685L95.3098 35.9435L95.2098 36.0436L95.1117 36.1425L95.0118 36.2425L94.9366 36.3426L94.8614 36.4427L94.7864 36.5428L94.7111 36.6679L94.6359 36.7931L94.5609 36.9183L94.4856 37.0434L94.4106 37.1686L94.3354 37.2937L94.2855 37.4189L94.2353 37.5441L94.1854 37.6692L94.1352 37.7944L94.0853 37.9195L94.0352 38.0447L93.9852 38.1947L93.9353 38.3198L93.8852 38.445L93.8352 38.5952L93.8102 38.7204L93.7848 38.8706L93.7597 38.9958L93.7347 39.1458L93.7096 39.271L93.6594 39.296L93.6095 39.3211L93.5593 39.3713L93.5094 39.4215L93.4593 39.4716L93.4093 39.5215L93.3594 39.5717L93.3093 39.6219L93.2842 39.672L93.2343 39.7222L93.1841 39.7723L93.159 39.8225L93.1089 39.8724L93.0838 39.9226L93.0587 39.9728L93.0336 40.0229L93.0085 40.0731L92.9832 40.123L92.9581 40.1732L92.933 40.2233L92.908 40.2735L92.8829 40.3236L92.8576 40.3736L92.8325 40.4237L92.8074 40.4739L92.7823 40.5241L92.757 40.5742L92.7319 40.6244L92.7068 40.6745L92.6817 40.7245L92.6567 40.7746V40.8248H92.6313H92.6062H92.5812H92.5561H92.531H92.5057H92.4806L92.4307 40.8499L92.3805 40.8749L92.3306 40.9L92.2804 40.9251L92.2553 40.975L92.2054 41.0001L92.1553 41.0503L92.1054 41.1004L92.0803 41.1506L92.0301 41.2005L92.005 41.2507L91.9799 41.3008L91.9549 41.351L91.9295 41.4012L91.9044 41.4511L91.8794 41.5012L91.8543 41.5514L91.8292 41.6016L91.8039 41.6517L91.7788 41.7016L91.7537 41.7518L91.7286 41.802L91.7033 41.8521L91.6782 41.9023L91.6531 41.9525V42.0026L91.6281 42.0525V42.1027V42.1529V42.203V42.2532V42.3031V42.3533V42.4034V42.4536V42.5038V42.5539L91.6531 42.6041V42.654L91.6782 42.7042L91.7033 42.7543L91.7286 42.8045L91.7537 42.8547L91.7788 42.8797L91.8039 42.9048L91.8292 42.9299L91.8543 42.955L91.8794 42.9801L93.0808 43.6809C93.1307 43.7059 93.1809 43.731 93.2308 43.7561C93.0056 43.7059 92.8553 43.4559 92.8553 43.0801C92.8553 42.5045 93.2057 41.8285 93.6314 41.5785C93.6813 41.5286 93.7565 41.5286 93.8064 41.5035C93.9564 40.8777 94.3071 40.2519 94.7325 39.9266C94.8576 38.4497 95.7087 36.848 96.7599 36.2473C97.6859 35.6965 98.4868 36.1221 98.7371 37.1482C98.9375 36.8728 99.1876 36.6225 99.4379 36.4722C99.713 36.2969 99.9887 36.2721 100.214 36.3471L99.0122 35.6463L99.1915 35.5919ZM38.3201 62.8989L82.3468 37.4941V53.1126C81.9212 52.9623 81.5209 52.8622 81.1953 52.7371L81.3957 52.3368C81.3957 52.3368 80.5946 51.8361 80.3194 51.3606C80.2944 51.3104 80.2442 51.2605 80.2194 51.1853C80.2194 51.1602 80.2194 51.1351 80.2194 51.11C80.5698 51.0601 80.9954 50.8098 81.3957 50.034C82.2967 48.2817 82.8475 42.8254 78.3921 42.5C73.937 42.1496 73.2112 45.6787 73.2112 45.6787C73.2112 45.6787 73.2862 45.9039 73.4615 46.1793C73.2862 46.755 73.2362 47.4558 73.3614 48.2067C73.762 50.8098 74.7881 52.2866 76.0648 52.7622C76.0648 52.7622 76.1899 53.0875 76.2147 53.388L75.2383 54.7146V54.7647L75.2135 54.7898C74.2122 55.6158 73.2611 56.4417 72.8605 56.8423C71.9844 55.0652 70.0322 54.5395 67.7294 55.7158C67.379 55.8912 67.0286 56.1164 66.6782 56.3416C66.1776 55.8159 65.7522 55.3153 65.5518 54.9398C65.5518 54.9398 64.2001 51.3355 63.925 51.0102C63.6496 50.6846 63.3243 50.885 63.3243 51.0852C63.2242 50.885 62.9739 50.5595 62.7486 50.6347C62.5733 50.6846 62.4983 50.885 62.5485 51.0852C62.4735 50.885 62.1981 50.7348 61.9979 50.8349C61.8226 50.9349 61.8477 51.2602 61.9728 51.4105C61.9728 51.4105 61.7476 51.1353 61.4474 51.3355C61.1471 51.5356 61.6224 52.4118 61.6224 52.4118L62.4236 54.0386L61.6475 53.6383C61.6475 53.6383 61.3721 53.5881 61.2971 53.8384C61.197 54.0637 61.4223 54.314 61.4223 54.314C61.4223 54.314 62.7988 55.6406 63.2495 55.8157C63.6749 56.0158 63.8001 56.216 63.8001 56.216L63.9252 56.1159C63.9252 56.1159 64.3258 56.8418 64.9513 57.8679C62.8239 60.1704 61.3721 63.4745 61.3721 66.2278C61.3721 70.0323 64.0504 71.5342 67.3791 69.6319C69.3064 68.5306 71.0333 66.4781 72.1346 64.2255C72.6353 64.0002 73.1108 63.6248 73.5613 63.1743C74.1119 66.5032 75.0131 70.1075 75.839 71.0085C75.839 71.0335 76.0392 72.0847 76.2892 73.4863L38.37 95.5373V62.8989H38.3201ZM44.252 70.2826L44.2771 72.9857L56.316 66.0274V63.3243L44.252 70.2826ZM44.252 75.5636L44.2771 78.267L56.316 71.3087V68.6304L44.252 75.5636ZM44.252 80.8452L44.2771 83.5483L56.316 76.59V73.9117L44.252 80.8452ZM93.5099 92.609C93.4598 92.5837 93.4347 92.5588 93.3848 92.5337C92.9591 92.2082 92.5588 91.8329 92.3085 91.5826C92.1332 91.4076 92.0333 91.2824 92.0333 91.2824L89.4551 93.7099C89.4551 93.7099 89.5053 93.7851 89.6051 93.9103C89.7052 94.0605 89.8555 94.2857 89.9555 94.511C90.0057 94.6361 90.0556 94.7615 90.0807 94.8614C90.1559 95.362 88.0533 97.6397 88.4037 98.5658C88.429 98.641 88.4789 98.7158 88.5038 98.791C88.9294 99.4416 89.8304 99.2666 91.232 98.1652C91.8327 97.6894 92.3832 97.1388 92.8588 96.5883C93.2345 96.1626 93.5596 95.737 93.8099 95.3116C94.461 94.3357 94.7861 93.5599 93.5099 92.609ZM72.0596 97.6896C71.0335 98.0902 69.8321 98.5158 69.0811 98.6661C69.056 98.6661 69.031 98.6661 69.0061 98.6912C68.3803 98.8163 67.9549 99.0915 67.7545 99.4419C67.5042 99.8675 67.6043 100.368 68.1049 100.643C68.3302 100.768 68.8308 100.869 69.4814 100.919C69.7318 100.944 70.0072 100.969 70.2826 100.994C70.658 101.019 71.0586 101.044 71.484 101.044C72.8856 101.094 74.3624 101.094 75.3635 101.069C75.5388 101.069 75.7141 101.069 75.8643 101.069C75.8643 101.069 76.2897 101.194 76.5403 100.468C76.5403 100.443 76.5654 100.418 76.5654 100.368C76.7906 99.6175 76.8656 98.416 76.8656 98.416L73.8871 96.9643C73.9117 96.9387 73.086 97.2896 72.0596 97.6896Z" fill="#FE96FF"/>
<path d="M97.4142 73.436L84.7994 80.7199V90.6565L84.5242 90.4811L83.8736 90.1057L82.547 89.3299V88.5791V87.8282V87.4279V79.3685L86.4764 77.0908L86.6517 76.9907V78.1171C86.6517 78.4173 86.8268 78.5425 87.1772 78.4673C87.4777 78.3923 87.4523 78.0419 87.4523 78.0419V76.5901L89.3297 75.5138C89.405 75.5891 89.6049 75.7142 89.9305 75.6638C90.3561 75.6139 90.4813 75.113 90.4813 75.113C90.4813 75.113 90.8066 75.3134 90.9315 75.1883C91.0067 75.1384 91.1068 75.0132 91.232 74.8627V75.714C91.232 75.714 91.2069 75.9144 91.6075 75.9144C92.008 75.9144 92.0331 75.4639 92.0331 75.4639V73.9118L95.1365 72.1097L97.4142 73.436ZM70.2076 64.5005C68.9811 64.3003 66.378 60.2706 64.9263 57.8928C62.7988 60.1956 61.347 63.4995 61.347 66.2527C61.347 70.0572 64.0251 71.5589 67.354 69.6566C69.2813 68.5553 71.0082 66.5031 72.1096 64.2502C71.5342 64.5256 70.9335 64.6259 70.2076 64.5005ZM67.7046 55.7152C67.3542 55.8905 67.0038 56.1158 66.6534 56.341C68.1551 57.9428 70.4328 59.8952 70.4328 59.8952C70.4328 59.8952 71.8846 57.8176 72.7356 56.9415C72.7607 56.9164 72.8106 56.8665 72.8357 56.8414C71.9596 55.0646 70.0072 54.5388 67.7046 55.7152ZM79.3932 20.5239C79.1429 20.7742 78.8677 21.0245 78.5923 21.2247C78.4922 21.2997 78.3919 21.3747 78.3169 21.4248C78.2168 21.4998 78.1167 21.5748 78.0417 21.625L78.0167 21.6501C78.0167 21.6501 77.9916 21.6501 77.9916 21.6752L77.9663 21.7002C77.9412 21.7002 77.9412 21.7253 77.9163 21.7253C77.8411 21.7755 77.7912 21.8003 77.7159 21.8505C77.6909 21.8505 77.666 21.8756 77.666 21.8756C77.5908 21.9257 77.516 21.9756 77.4408 22.0007C77.0405 22.2011 76.6397 22.3511 76.2644 22.4264C75.839 22.5264 75.4385 22.5264 75.063 22.4763C75.0379 22.4763 75.0131 22.4763 74.9877 22.4512C74.5874 22.3762 74.237 22.2009 73.9368 21.9756C73.9117 21.9756 73.9117 21.9506 73.8866 21.9506C73.8365 21.9004 73.7615 21.8505 73.7113 21.8003C73.6612 21.7502 73.6363 21.7253 73.6112 21.6752C73.6112 21.6752 73.6112 21.6501 73.5862 21.6501C73.4108 21.4497 73.2606 21.1996 73.1357 20.8991C72.9104 20.3985 72.8104 19.7727 72.8104 19.047C72.8104 17.4453 73.386 15.6682 74.3371 14.0913C74.1871 14.1914 74.0369 14.3165 73.8866 14.4417C73.8616 14.4668 73.8365 14.4916 73.8116 14.5167C73.6614 14.6419 73.5362 14.767 73.386 14.8922C73.3609 14.9173 73.311 14.9672 73.2859 14.9923C73.1357 15.1174 73.0105 15.2674 72.8854 15.3926C72.8854 15.3926 72.8854 15.4177 72.8603 15.4177C72.71 15.5677 72.5849 15.7179 72.4597 15.8681C72.4346 15.8932 72.4096 15.9183 72.4096 15.9434C72.1344 16.2687 71.8838 16.594 71.6335 16.9444C71.6084 16.9946 71.5585 17.0445 71.5334 17.0947C71.4333 17.2446 71.333 17.3949 71.258 17.52C71.2329 17.5451 71.2079 17.595 71.183 17.6201C70.9578 17.9956 70.7576 18.3708 70.5572 18.7714C70.5572 18.7965 70.5322 18.8216 70.5322 18.8464C70.4321 19.0466 70.3568 19.2219 70.2818 19.422C70.2568 19.4719 70.2317 19.5221 70.2066 19.5971C70.1567 19.7473 70.1065 19.8725 70.0566 20.0228C69.9314 20.3481 69.8314 20.6734 69.7564 20.9989C69.7313 21.0491 69.7313 21.1241 69.7062 21.1743C69.6312 21.4996 69.5562 21.8252 69.5309 22.1505C69.5058 22.3757 69.4807 22.6009 69.4807 22.8014C69.4807 22.9513 69.4556 23.1016 69.4556 23.2267C69.4556 24.7036 69.9061 25.8298 70.632 26.4807C71.5831 27.3317 73.0349 27.4067 74.6868 26.5807C74.8119 26.5306 74.912 26.4556 75.0123 26.4054C75.1375 26.3304 75.2626 26.2552 75.3625 26.1802C77.44 24.8287 79.2171 22.3258 80.0681 19.7978C79.943 19.9478 79.8178 20.098 79.6927 20.2232C79.5434 20.3736 79.4684 20.4489 79.3932 20.5239Z" fill="#6EF392"/>
<path d="M81.4707 86.2264L80.5946 86.7272C80.7699 86.4518 80.9952 86.1516 81.1953 85.8511C81.2954 85.976 81.3706 86.1012 81.4707 86.2264ZM85.15 76.415C84.9248 77.0656 84.6745 77.7162 84.4994 78.2921L82.5219 79.4436L86.4515 77.1659L85.15 76.415ZM99.8923 100.593L92.9591 96.5886C92.934 96.5632 92.9092 96.5632 92.8841 96.5632C92.4086 97.114 91.8578 97.6648 91.257 98.1402C89.8552 99.2418 88.9545 99.4168 88.5289 98.7662L81.8462 102.646C81.621 102.771 81.621 103.096 81.8462 103.221L88.7792 107.226C88.9796 107.351 89.2296 107.351 89.4301 107.226L99.8923 101.194C100.118 101.044 100.118 100.718 99.8923 100.593ZM121.543 62.2483C121.543 63.775 121.268 65.427 120.417 66.7034C119.515 68.105 118.089 68.8559 116.412 68.8559C114.71 68.8559 112.983 68.1301 111.581 67.204C106.676 64.0254 102.821 57.1421 102.821 51.4604C102.821 48.507 103.872 46.4294 105.574 45.4786C106.3 45.078 107.126 44.8779 107.927 44.8779C114.66 44.8026 121.543 54.7643 121.543 62.2483ZM119.09 60.8467C119.09 56.4914 116.011 51.1853 112.207 48.9828C108.402 46.7801 105.324 48.5323 105.324 52.8874C105.324 53.0125 105.324 53.1628 105.324 53.2879C105.324 53.313 105.324 53.3381 105.324 53.3629C105.324 53.4881 105.349 53.5882 105.349 53.7133C105.349 53.7384 105.349 53.7384 105.349 53.7635C105.349 53.8886 105.374 54.0138 105.399 54.139C105.399 54.139 105.399 54.139 105.399 54.164C105.649 56.0414 106.375 58.0184 107.426 59.7957C107.451 59.8459 107.476 59.8707 107.501 59.9209C107.551 59.9962 107.601 60.0962 107.652 60.1712C107.701 60.2465 107.751 60.3465 107.827 60.4215C107.852 60.4715 107.877 60.4965 107.902 60.5467C107.977 60.6468 108.052 60.7469 108.127 60.8469C108.127 60.872 108.152 60.872 108.152 60.8969C108.227 61.022 108.327 61.1221 108.402 61.2473C109.254 62.3988 110.255 63.4249 111.331 64.2007C111.381 64.2258 111.406 64.2508 111.456 64.2759C111.506 64.3261 111.581 64.3509 111.631 64.4011C111.681 64.4262 111.731 64.4512 111.756 64.5012C111.782 64.5012 111.782 64.5262 111.806 64.5262C111.906 64.5764 111.982 64.6514 112.082 64.7016C112.107 64.7267 112.132 64.7267 112.157 64.7517C112.682 65.052 113.258 65.3274 113.834 65.5024C113.834 65.5024 113.834 65.5024 113.859 65.5024C114.009 65.5526 114.159 65.5774 114.284 65.6025C114.31 65.6025 114.31 65.6025 114.334 65.6025C114.46 65.6276 114.56 65.6527 114.685 65.6527C114.735 65.6527 114.76 65.6527 114.81 65.6778C114.935 65.7029 115.06 65.7029 115.16 65.7029C115.185 65.7029 115.185 65.7029 115.211 65.7029C115.26 65.7029 115.286 65.7029 115.336 65.7029C115.386 65.7029 115.461 65.7029 115.511 65.7029C115.561 65.7029 115.636 65.7029 115.686 65.7029C115.786 65.7029 115.886 65.6778 115.986 65.6527C116.036 65.6527 116.086 65.6276 116.136 65.6276C116.212 65.6025 116.261 65.6025 116.337 65.5774C116.387 65.5524 116.437 65.5524 116.487 65.5275C116.587 65.5024 116.687 65.4523 116.762 65.4275C116.787 65.4024 116.837 65.4024 116.862 65.3773C116.937 65.3522 116.987 65.3023 117.062 65.2772C117.087 65.2521 117.138 65.227 117.162 65.2022C117.263 65.152 117.338 65.1021 117.413 65.0269C117.438 65.0018 117.463 64.9767 117.488 64.9767C117.563 64.9268 117.613 64.8766 117.688 64.8014C117.713 64.7763 117.738 64.7515 117.763 64.7264C117.839 64.6514 117.913 64.5764 117.989 64.4761C118.014 64.451 118.014 64.4259 118.039 64.4259C118.089 64.3509 118.164 64.2759 118.214 64.1756C118.239 64.1505 118.264 64.1254 118.264 64.1006C118.339 64.0005 118.389 63.9002 118.439 63.775C118.439 63.75 118.464 63.75 118.464 63.7251C118.514 63.625 118.564 63.5247 118.614 63.3996C118.639 63.3745 118.639 63.3246 118.664 63.2995C118.714 63.1743 118.764 63.0492 118.79 62.924V62.8989C118.815 62.7738 118.865 62.6486 118.889 62.5234C118.889 62.4984 118.915 62.4482 118.915 62.4234C118.94 62.2731 118.965 62.1231 118.99 61.9729V61.9478C119.015 61.7976 119.015 61.6476 119.04 61.4973C119.04 61.4474 119.04 61.4223 119.04 61.3722C119.065 61.172 119.09 60.9967 119.09 60.8467ZM97.3144 83.4232L103.221 86.8271L93.3848 92.5087C92.9591 92.1834 92.5588 91.8079 92.3085 91.5576C92.3085 91.5576 91.9829 91.1322 91.4825 90.4314L92.6087 91.0823L95.9627 89.1301L93.9855 88.0037L90.9571 89.7306C90.8319 89.5555 90.7067 89.3804 90.5813 89.2051L93.3346 87.6282L91.6576 86.652L92.3085 86.2765L93.9855 87.2527L97.3643 85.3505L95.6873 84.3743L97.3144 83.4232ZM98.0149 85.7257L94.6609 87.653L96.6384 88.7792L99.9924 86.8271L98.0149 85.7257ZM89.9806 94.511L60.5712 111.481L42.2748 100.919L77.3911 80.6448C77.0407 81.5458 76.7151 82.3968 76.4651 83.0725L73.5866 84.7495L75.5639 85.8757L75.8894 85.7006C75.8395 86.0009 75.7894 86.3513 75.7144 86.727L75.5641 86.6267L72.2104 88.5791L74.1876 89.7053L75.3391 89.0293C75.289 89.3047 75.2388 89.5801 75.1889 89.8553L74.8387 90.0557L75.139 90.2307C75.0891 90.4562 75.0637 90.6812 75.0138 90.9067L74.1879 90.4311L70.8339 92.3585L72.8111 93.4849L74.7635 92.3585C74.7133 92.6336 74.6634 92.9093 74.6132 93.1844L73.4369 93.8604L74.388 94.4109C74.3378 94.6613 74.313 94.8867 74.2629 95.0869L72.786 94.2359L69.432 96.188L71.4092 97.3142L74.1876 95.7124C74.1374 96.0628 74.0875 96.3385 74.0374 96.5384L72.11 97.6398C71.0839 98.0403 69.8825 98.4657 69.1315 98.616L70.7584 97.6651L68.7811 96.5387L65.4271 98.466L67.4044 99.5924L67.8298 99.3418C67.5795 99.7675 67.6795 100.268 68.1802 100.543C68.4054 100.668 68.906 100.769 69.5567 100.819L70.0072 101.094L70.3576 100.893C70.733 100.919 71.1336 100.944 71.559 100.944L70.658 101.469L72.6353 102.595L75.4385 100.968C75.6138 100.968 75.7889 100.968 75.9391 100.968C75.9391 100.968 76.3647 101.094 76.6151 100.368C76.6151 100.343 76.6401 100.318 76.6401 100.268L79.9941 98.3403L80.645 97.9648L83.999 96.0375L84.6496 95.662L88.0036 93.7347L86.0261 92.6085L85.676 92.8087L83.0479 94.3354L82.6724 94.5356L78.6675 96.8635L78.0169 97.239L77.7164 97.4143L77.0658 97.7898C77.1408 97.5643 77.2158 97.264 77.3161 96.9136L77.366 96.8886L77.3409 96.8635C77.3911 96.6631 77.4661 96.4378 77.5163 96.2128L78.0169 96.5131L81.3709 94.5609L79.3934 93.4345L78.0668 94.2103C78.1421 93.91 78.2421 93.6098 78.3171 93.3093L78.7428 93.059L78.4423 92.8837C78.4925 92.6835 78.5675 92.4583 78.6427 92.233L79.3934 92.6587L82.7474 90.7311L80.7702 89.6049L79.1431 90.5561C79.2432 90.2305 79.3435 89.9303 79.4436 89.63L80.1441 89.2295L79.6688 88.9543C79.7438 88.7291 79.8188 88.5287 79.8938 88.3283L80.795 88.854L82.5472 87.8529V88.6037L81.4456 89.2295L83.4231 90.3556L83.8987 90.0805L84.5493 90.4562L84.0738 90.7311L86.0512 91.8576L86.7269 91.4821C86.9023 91.6321 87.0773 91.7826 87.2527 91.9323L86.7019 92.2328L88.6793 93.3592L88.8795 93.2341C89.3801 93.6096 89.6806 93.8345 89.6806 93.8345C89.7303 94.0608 89.8808 94.2858 89.9806 94.511ZM85.3502 92.2835L83.3727 91.1573L80.019 93.0843L81.9962 94.2105L85.3502 92.2835ZM67.3542 100.393L64.0002 102.345L65.9775 103.472L69.3314 101.544L67.3542 100.393ZM63.5247 93.5599L60.1707 95.4872L62.1479 96.6134L65.5019 94.6863L63.5247 93.5599ZM66.1528 94.3109L69.5068 92.3585L67.5295 91.2323L64.1755 93.1596L66.1528 94.3109ZM59.52 95.8624L56.1661 97.79L58.1433 98.9162L61.497 96.9889L59.52 95.8624ZM55.5152 98.1903L52.1612 100.118L54.1384 101.244L57.4924 99.3165L55.5152 98.1903ZM54.7642 101.619L56.7414 102.746L60.0954 100.794L60.7463 100.418L64.1003 98.4905L62.1231 97.3644L59.3196 98.9914L58.1182 99.692L54.7642 101.619ZM57.3675 103.146L59.3447 104.272L62.6985 102.345L60.7212 101.219L57.3675 103.146ZM59.9954 104.648L61.9726 105.774L65.3266 103.847L63.3493 102.721L59.9954 104.648ZM64.7512 98.8914L61.3972 100.819L63.3744 101.945L66.7284 99.9927L64.7512 98.8914ZM68.1049 96.188L66.1277 95.0618L62.7737 97.014L64.7509 98.1402L68.1049 96.188ZM70.1323 92.7588L66.7783 94.6863L68.7556 95.8125L72.1095 93.8852L70.1323 92.7588ZM71.5342 88.9295L68.1802 90.8816L70.1574 92.0078L73.5111 90.0557L71.5342 88.9295ZM69.5818 87.0523L71.559 88.1788L74.913 86.2512L72.9358 85.125L69.5818 87.0523ZM65.5521 89.3549L67.5293 90.4811L70.8833 88.554L68.906 87.4276L65.5521 89.3549ZM61.5472 91.6825L63.5244 92.8089L66.8784 90.8816L64.9012 89.7554L61.5472 91.6825ZM57.5426 93.9855L59.5198 95.1117L62.8738 93.1596L60.8966 92.0334L57.5426 93.9855ZM53.5379 96.2881L55.5152 97.4145L58.8692 95.4621L56.8919 94.3359L53.5379 96.2881ZM49.5331 98.6157L51.5103 99.7422L54.8643 97.79L52.8871 96.6636L49.5331 98.6157ZM47.5057 102.07L50.8597 100.143L48.8824 99.0165L45.5284 100.944L47.5057 102.07ZM50.109 103.572L53.4629 101.644L51.4857 100.518L48.1317 102.47L50.109 103.572ZM52.712 105.073L56.066 103.121L54.0887 101.995L50.7348 103.922L52.712 105.073ZM55.3401 106.575L58.6941 104.648L56.7169 103.522L53.3629 105.449L55.3401 106.575ZM57.9682 108.102L61.3222 106.15L59.345 105.024L55.991 106.976L57.9682 108.102ZM63.9252 107.677L61.948 106.55L58.594 108.478L60.5712 109.604L63.9252 107.677ZM67.9299 105.349L65.9526 104.223L62.5986 106.15L64.5759 107.276L67.9299 105.349ZM71.9345 103.046L69.9572 101.92L66.6035 103.847L68.5807 104.973L71.9345 103.046Z" fill="#9BF5D2"/>
<path d="M30.4608 87.9531C30.7362 85.25 32.2881 83.6734 34.0152 82.0711V96.313C32.8389 95.5623 31.7626 94.7113 31.1117 93.5848C31.0866 93.5598 31.0116 93.3847 30.8614 93.1095C30.7362 92.8341 30.6362 92.5587 30.5612 92.2836C30.2858 91.1574 30.361 89.7305 30.436 88.2288L30.4608 87.9531ZM34.015 97.7648V96.8889C32.4882 96.1881 31.2115 95.237 30.3357 93.3599C27.983 89.1546 24.479 89.5301 22.0761 90.8817C24.7293 88.9544 27.6576 89.1297 29.8601 91.6826C29.735 90.7566 29.76 89.7054 29.8102 88.6043C29.8102 88.379 29.8102 88.1538 29.8353 87.9286C29.9604 85.6007 30.0354 83.0977 28.834 81.1456C27.908 79.5937 26.231 79.0931 24.6541 78.6426C23.9781 78.4425 23.3024 78.2423 22.6768 77.9667C20.0738 78.7174 18.0715 78.217 16.6947 75.8894C18.5468 77.166 19.373 77.992 21.8757 77.5413C21.1749 77.0908 20.6244 76.4397 20.349 75.4386C20.0236 74.2874 19.9735 73.4112 19.9236 72.6355C19.7234 69.2815 18.3216 68.5807 16.3443 67.2541C19.1977 68.6306 20.3241 69.2313 20.5243 72.6104C20.5744 73.3362 20.6244 74.1873 20.9248 75.2884C21.4503 77.0905 23.0771 77.5661 24.8043 78.0916C26.5064 78.5922 28.2835 79.1179 29.3346 80.8699C30.1857 82.2969 30.436 83.9237 30.4608 85.5756C31.437 83.3977 32.3631 82.6219 33.9651 81.7212V78.4671C33.865 78.4422 33.7398 78.4422 33.6395 78.4422C32.5883 78.5421 32.1629 80.0191 32.1629 80.0191C32.1629 80.0191 31.1867 76.1893 29.1844 75.0632C27.1821 73.937 26.3311 75.1883 25.5801 74.4125C24.9794 73.7867 25.2297 72.36 24.6791 71.1335C24.4288 70.583 24.0533 69.8819 23.5279 69.1563C22.6517 67.9549 21.3252 66.6784 19.373 65.7521C14.5923 63.4744 14.0666 67.229 14.3169 68.7056C14.5673 70.2075 17.1204 73.3611 17.1204 73.3611C17.1204 73.3611 14.0418 74.938 14.4923 77.6163C14.9427 80.2943 20.6996 82.4968 22.9522 81.3204C22.9522 81.3204 21.5757 82.0212 21.901 82.8973C22.2264 83.7985 25.9558 85.851 26.7567 87.1272C26.7567 87.1272 22.6269 86.001 20.8248 88.4538C19.7234 89.9306 20.4744 91.2572 21.2253 92.0832C21.7009 92.6089 22.2015 92.9091 22.2015 92.9091C22.2015 92.9091 21.7761 93.1595 22.1514 93.8103C22.5519 94.4607 23.2778 95.0118 24.6543 94.8114C26.0057 94.611 25.4303 93.5598 27.3075 93.8603C29.1847 94.1354 29.535 94.7361 30.5363 96.0627C31.1872 96.9138 32.6638 97.7146 34.0155 98.065C34.015 97.915 34.015 97.8398 34.015 97.7648Z" fill="#36F3AF"/>
<path d="M91.5324 74.5124C91.5324 74.5124 91.3824 74.6877 91.2322 74.8628C91.107 75.013 90.9818 75.1382 90.9317 75.1883C90.8065 75.3135 90.4814 75.1131 90.4814 75.1131C90.4814 75.1131 90.3563 75.614 89.9306 75.6639C89.6051 75.714 89.4052 75.5638 89.3299 75.5139C89.3048 75.4888 89.28 75.4888 89.28 75.4888C89.28 75.4888 88.7543 75.3388 88.6793 75.2884C88.604 75.2382 88.504 74.6877 88.504 74.6626L88.4789 74.6877L88.0284 74.9879C88.0284 74.9879 88.0284 74.9631 88.0033 74.9631C87.9032 74.7878 87.4779 73.9116 87.6278 73.261C87.6529 73.1609 87.7028 73.0358 87.753 72.9608C88.1784 72.3601 88.4036 71.5592 88.4789 71.3839C88.4789 71.3839 88.4789 71.3839 88.4789 71.4089C88.504 71.434 88.5288 71.4839 88.5541 71.509L88.5792 71.5341C88.6043 71.5592 88.6542 71.5843 88.6793 71.6091L88.7044 71.6342C88.7295 71.6593 88.7794 71.6843 88.8044 71.7094C88.8044 71.7094 88.8295 71.7094 88.8295 71.7345C88.8794 71.7596 88.9045 71.7596 88.9547 71.7847H88.9798C89.0297 71.8098 89.0798 71.8097 89.1298 71.8348C89.4302 71.9098 89.7558 71.8599 90.106 71.7847C90.1313 71.7847 90.1561 71.7596 90.1812 71.7596C90.2063 71.7596 90.2063 71.7596 90.2311 71.7345C90.2813 71.7094 90.3312 71.7094 90.3814 71.6843C90.6066 71.6093 90.8569 71.4842 91.0822 71.359H91.1572C91.1572 71.359 91.4075 72.2349 91.6076 72.9608C91.7077 73.3363 91.808 73.6867 91.8329 73.8118C91.958 74.1371 91.5324 74.5124 91.5324 74.5124ZM79.1428 48.707C78.6173 48.9075 78.8426 46.5547 78.8426 46.5547C78.8426 46.5547 78.5672 46.7549 76.2395 47.2555C76.1394 47.2806 76.0645 47.2806 75.9892 47.3057C75.9641 47.3057 75.939 47.3057 75.9142 47.3057C75.864 47.3057 75.7891 47.3308 75.7389 47.3308C75.7138 47.3308 75.6887 47.3308 75.6636 47.3308C75.5136 47.3308 75.3632 47.3308 75.2134 47.3057C75.1881 47.3057 75.1881 47.3057 75.1632 47.3057C75.1131 47.3057 75.0381 47.2806 74.9879 47.2806H74.9631C74.8379 47.2555 74.7128 47.2054 74.5874 47.1555H74.5623C74.5121 47.1304 74.4622 47.1053 74.4123 47.0802C74.3122 47.0301 74.1871 46.9551 74.1118 46.8801C73.8367 46.6799 73.6362 46.4045 73.486 46.2043C73.3107 46.78 73.2608 47.4808 73.3859 48.2317C73.7865 50.8348 74.8126 52.3116 76.0893 52.7872C76.0893 52.7872 76.2144 53.1127 76.2393 53.413C76.2393 53.438 76.2393 53.4631 76.2393 53.488C76.2393 53.563 76.2393 53.6382 76.2393 53.6881C76.1894 54.0137 76.164 54.6142 76.164 54.6142L76.8648 55.9408C76.8648 55.9408 77.6908 54.9896 78.4167 54.3139C78.4668 54.2638 78.5167 54.2138 78.5418 54.1637C78.5418 54.1637 78.5418 54.1386 78.5669 54.1386C78.6171 54.0884 78.6422 54.0385 78.6921 53.9884C79.0425 53.5379 79.4179 52.9121 79.7184 52.3364C79.7184 52.3364 79.7184 52.3364 79.7184 52.3114C79.7435 52.2364 79.7937 52.1862 79.8185 52.1112C79.8185 52.0861 79.8436 52.061 79.8436 52.061C79.8687 52.0109 79.8935 51.961 79.9188 51.9359C79.9439 51.9108 79.9439 51.8609 79.9687 51.8358C79.9687 51.8107 79.9938 51.7859 79.9938 51.7608C80.0192 51.7106 80.044 51.6607 80.044 51.6356C80.044 51.6356 80.044 51.6356 80.044 51.6106C80.119 51.4352 80.1691 51.3103 80.194 51.21C80.194 51.1849 80.194 51.1598 80.194 51.135C79.9687 51.1601 79.7937 51.1099 79.6432 51.0349C79.6181 51.0098 79.5933 51.0098 79.5682 50.9848L79.5431 50.9597C79.5178 50.9597 79.5178 50.9346 79.4929 50.9346C79.4679 50.9095 79.4679 50.9095 79.443 50.9095L79.4177 50.8844L79.3926 50.8594C79.3427 50.7342 79.6179 50.7593 80.1436 50.3838C80.6691 50.0083 80.744 48.4316 80.3939 48.0812C80.0192 47.6809 79.6434 48.5069 79.1428 48.707ZM63.2991 51.1099C63.199 50.9098 62.9487 50.5844 62.7235 50.6594C62.5482 50.7096 62.4732 50.9098 62.5233 51.1099C62.4481 50.9098 62.1729 50.7595 61.9725 50.8596C61.7972 50.9597 61.8225 51.285 61.9474 51.4352C61.9474 51.4352 61.7222 51.1598 61.4217 51.3602C61.1215 51.5604 61.5971 52.4365 61.5971 52.4365L62.3979 54.0634L61.6219 53.6628C61.6219 53.6628 61.3467 53.6126 61.2715 53.8629C61.1714 54.0882 61.3966 54.3385 61.3966 54.3385C61.3966 54.3385 62.7732 55.6651 63.2236 55.8402C63.649 56.0406 63.7742 56.2407 63.7742 56.2407L63.8993 56.1407L65.5264 54.9643C65.5264 54.9643 64.1747 51.36 63.8993 51.0347C63.6247 50.7096 63.2991 50.9098 63.2991 51.1099Z" fill="white"/>
<path d="M90.4561 71.6092C90.5813 71.5591 90.7315 71.5091 90.8567 71.459C90.7067 71.5091 90.5813 71.5591 90.4561 71.6092ZM120.592 77.8414L116.987 79.9187C116.662 80.169 114.96 81.2704 112.557 79.8688L107.426 76.8903L107.827 77.1158C107.526 77.4411 107.201 77.6663 106.75 77.641C106.65 77.641 106.575 77.6162 106.5 77.566L104.648 76.4897L101.895 78.0666C101.394 78.3418 100.818 77.9415 100.493 77.5412L100.568 77.4912L99.717 77.9919C99.4416 78.1419 99.0661 77.5913 99.1413 77.2911C99.1912 77.1409 99.792 76.8654 100.067 76.6904L99.9673 76.7403C99.7669 76.2647 99.6417 75.6141 100.067 75.2138L104.422 72.6857C104.648 72.5606 104.948 72.5857 105.273 72.7607C105.499 72.8859 105.699 73.0861 105.874 73.2865L108.127 74.6131L108.077 74.588C107.851 74.513 107.626 74.5381 107.426 74.6632C107.626 74.5632 107.851 74.5381 108.052 74.588C108.502 74.738 108.577 75.2888 108.477 75.7894L113.258 78.5427C115.06 79.5939 116.011 78.6929 116.161 78.6179L119.09 76.9409L88.9294 59.3704C90.6813 64.4513 91.1817 71.2092 91.1817 71.2092C91.0566 71.2842 90.9314 71.3343 90.8063 71.4093C90.9063 71.3591 91.0067 71.3092 91.1067 71.2593H91.1817C91.1817 71.2593 91.4323 72.1352 91.6322 72.8613C91.8575 72.8613 92.0077 73.0113 92.0077 73.3118V73.8874L95.1116 72.0848L97.3893 73.3863V78.8427L117.838 90.6566C118.389 90.982 118.639 91.5576 118.564 92.1332C118.564 92.1082 118.564 92.0833 118.564 92.0334V93.2848C118.564 93.7854 118.314 94.2858 117.814 94.5614L71.2589 121.518C70.3329 122.043 69.2065 122.043 68.2804 121.518L37.394 103.697C36.8683 103.396 36.6179 102.846 36.6681 102.32V101.169C36.6681 101.194 36.6681 101.219 36.6681 101.244C36.6179 100.693 36.8434 100.142 37.3438 99.8172C36.6681 100.168 35.9171 99.9674 35.4917 99.4417C35.5918 99.5668 35.6921 99.6669 35.8173 99.7422L34.741 99.0662C34.3656 98.841 34.0901 98.4655 34.0152 97.9899C32.6635 97.6646 31.1618 96.8637 30.536 95.9876C29.5347 94.661 29.1843 94.0605 27.3072 93.7851C25.43 93.4849 26.0307 94.5359 24.654 94.7363C23.3023 94.9367 22.5516 94.3859 22.151 93.7352C21.7505 93.0843 22.2012 92.834 22.2012 92.834C22.2012 92.834 21.7006 92.5338 21.225 92.0081L8.53491 99.2917L66.7283 132.831L140.44 89.405L120.592 77.8414ZM86.977 72.8606L87.6278 73.2361C87.6529 73.136 87.7028 73.0108 87.753 72.9358C88.1784 72.3351 88.4036 71.5342 88.4789 71.3589C88.4789 71.3589 88.4789 71.3589 88.4789 71.384C88.4538 71.3589 88.429 71.309 88.4036 71.2839C88.0532 68.3804 86.4515 64.9012 85.5004 63.0241V70.3328C85.5004 70.5329 85.4753 70.7083 85.4505 70.9084C85.5255 71.1088 85.7008 71.5841 85.9511 72.5603C86.3012 72.5603 86.6519 72.6855 86.977 72.8606Z" fill="#00C3F9"/>
<path d="M86.6268 78.1916V77.0654V76.1143C86.6268 75.8891 86.752 75.6638 86.9522 75.5387L87.9785 74.938C87.9785 74.9633 88.0036 74.9633 88.0036 74.9633L88.4541 74.6628L88.4792 74.6377C88.4792 74.6628 88.5792 75.2134 88.6542 75.2635L87.428 75.9643V76.5648V78.1169C87.428 78.1169 87.453 78.4424 87.1528 78.5423C86.827 78.6173 86.6268 78.4921 86.6268 78.1916ZM91.6077 75.939C92.008 75.939 92.0333 75.4888 92.0333 75.4888V73.9369V73.3613C92.0333 73.0611 91.8831 72.8857 91.6576 72.9108C91.7577 73.2863 91.858 73.6367 91.8828 73.7619C91.9581 74.1373 91.5324 74.5379 91.5324 74.5379C91.5324 74.5379 91.3824 74.7132 91.2322 74.8883V75.7393C91.2322 75.7388 91.2071 75.939 91.6077 75.939ZM91.5073 90.4563C91.3573 90.2559 91.1818 90.0307 91.0067 89.7803C90.8815 89.605 90.7564 89.4299 90.6312 89.2549C90.3307 88.8292 89.9803 88.3787 89.655 87.8781L85.375 90.356C85.8255 90.7816 86.2762 91.1819 86.7016 91.5326C86.8769 91.6826 87.052 91.8328 87.2273 91.9828C87.8779 92.5336 88.4287 92.9841 88.8541 93.3094C89.3548 93.6849 89.6553 93.9101 89.6553 93.9101C89.58 93.785 89.5053 93.7097 89.5053 93.7097L92.0832 91.282C92.0832 91.282 92.1833 91.4074 92.3584 91.5825C92.3085 91.5574 92.008 91.132 91.5073 90.4563ZM85.976 72.6853C85.9509 72.6352 85.9509 72.5852 85.926 72.5351C85.6757 71.5589 85.5004 71.0833 85.4251 70.8832C85.3752 70.7831 85.3502 70.7329 85.3502 70.7329C84.1487 72.6352 76.8902 71.534 76.0391 71.2586C76.0141 71.2586 76.0141 71.2586 75.9892 71.2336C75.9892 71.2336 75.9642 71.2085 75.9391 71.2085C75.9391 71.2085 75.9391 71.2085 75.914 71.2085C75.914 71.2085 75.8889 71.2085 75.8889 71.1834L75.8638 71.1583L75.8387 71.1332L75.8134 71.1082V71.0831C75.8134 71.0831 75.8134 71.0831 75.8134 71.058C75.8134 71.0831 76.0138 72.134 76.2639 73.5359C76.4643 74.5871 76.6895 75.8387 76.9148 76.9899C77.1899 78.4417 77.4154 79.7683 77.5155 80.3941C77.4902 80.4691 77.4402 80.5692 77.4154 80.6444C77.065 81.5454 76.7394 82.3964 76.4894 83.0721C76.2641 83.6979 76.1139 84.1484 76.1139 84.2485C76.1139 84.3483 76.0387 84.8743 75.8887 85.7002C75.8387 86.0005 75.7886 86.3509 75.7136 86.7266C75.5884 87.4271 75.4633 88.2283 75.313 89.0542C75.2631 89.3294 75.2132 89.6048 75.163 89.8802C75.1379 90.0053 75.1129 90.1305 75.088 90.2557C75.0379 90.4806 75.0128 90.7061 74.9629 90.9314C74.8876 91.432 74.7875 91.9078 74.7123 92.4082C74.6624 92.6834 74.6122 92.9588 74.5623 93.2342C74.4873 93.6596 74.4121 94.0849 74.3371 94.4604C74.2869 94.711 74.2621 94.9362 74.2119 95.1366C74.1617 95.3616 74.1369 95.562 74.1118 95.7624C74.0619 96.1126 74.0118 96.3882 73.9618 96.5884C73.9117 96.8387 73.8868 96.9639 73.8868 96.9639L76.8653 98.4156C76.8653 98.4156 76.9155 98.1902 77.0153 97.8147C77.0906 97.5897 77.1656 97.2892 77.2657 96.9388C77.2657 96.9137 77.2657 96.9137 77.2657 96.8889C77.3158 96.6885 77.3908 96.4635 77.441 96.238C77.6161 95.6375 77.7914 94.9367 78.0166 94.2106C78.0916 93.9104 78.1917 93.6101 78.2669 93.3097C78.3169 93.1597 78.3419 93.0345 78.3921 92.884C78.442 92.6839 78.5173 92.4586 78.5923 92.2334C78.7676 91.658 78.9427 91.0821 79.118 90.5313C79.2181 90.2057 79.3184 89.9053 79.4182 89.6053C79.4935 89.3803 79.5685 89.1548 79.6435 88.9295C79.7187 88.7041 79.7937 88.5039 79.8687 88.3037C80.1438 87.5528 80.3693 87.002 80.5447 86.7018C80.5447 86.6767 80.5697 86.6767 80.5697 86.6518C80.7448 86.3764 80.97 86.0762 81.1705 85.7757C81.2705 85.9011 81.3455 86.001 81.4456 86.1261C81.7712 86.5515 82.1216 86.9772 82.4968 87.4028V79.3431L84.4743 78.1919C84.6494 77.6165 84.8997 76.9904 85.1249 76.3145C85.6757 74.963 86.1764 73.4611 85.976 72.6853ZM76.2644 67.9548C76.2644 67.9548 78.1666 66.1527 78.4671 65.7022C78.7673 65.2517 77.4407 56.4664 77.4407 56.4664C77.2155 56.3912 77.0151 56.3413 76.8149 56.3912C76.7397 56.4163 76.6649 56.4413 76.5897 56.4664C76.5897 56.4664 74.8625 65.2517 74.7125 65.9525C74.5876 66.6031 76.2644 67.9548 76.2644 67.9548Z" fill="#E982B2"/>
<path d="M89.3049 75.5137L87.4275 76.5899V75.9892L88.6538 75.2884C88.729 75.3386 89.2545 75.4888 89.2545 75.4888C89.2545 75.4888 89.2801 75.4886 89.3049 75.5137ZM76.8902 98.4157C76.8902 98.4157 76.8152 99.6171 76.59 100.368L79.944 98.4405L80.5946 98.0651L83.9486 96.1377L84.5995 95.7623L87.9535 93.8347L85.976 92.7085L85.6256 92.9089L82.9975 94.4357L82.622 94.6358L78.6174 96.9637L77.9665 97.3392L77.6663 97.5142L77.0154 97.8897C76.9655 98.1902 76.8902 98.4157 76.8902 98.4157ZM88.8293 93.2846C88.4037 92.9591 87.8531 92.5086 87.2023 91.958L86.6517 92.2583L88.6289 93.3847L88.8293 93.2846ZM77.4909 96.2378L77.9918 96.5383L81.3458 94.5861L79.3683 93.4597L78.0417 94.2357C77.8413 94.9616 77.6663 95.6373 77.4909 96.2378ZM78.6174 92.2583L79.3681 92.6839L82.7221 90.7566L80.7449 89.6304L79.1178 90.5815C78.9678 91.1321 78.7925 91.7077 78.6174 92.2583ZM78.3169 93.3345L78.7425 93.0842L78.4421 92.9092C78.3921 93.0592 78.3671 93.1843 78.3169 93.3345ZM68.7558 96.5634L65.4021 98.4907L67.3793 99.6171L67.805 99.3668C68.0051 99.0413 68.4308 98.7408 69.0563 98.6159C69.0814 98.6159 69.1065 98.6159 69.1315 98.5908L70.7584 97.6397L68.7558 96.5634ZM75.1633 89.8554L74.8129 90.0558L75.1131 90.2309C75.1131 90.1057 75.1382 89.9806 75.1633 89.8554ZM79.4433 89.6552L80.1441 89.2549L79.6686 88.9795C79.5936 89.2048 79.5183 89.43 79.4433 89.6552ZM70.3327 100.943C70.0573 100.918 69.7819 100.893 69.5316 100.868L69.9821 101.143L70.3327 100.943ZM70.8083 92.3834L72.7855 93.5099L74.7377 92.3834C74.8129 91.9081 74.913 91.4075 74.988 90.9068L74.162 90.4313L70.8083 92.3834ZM44.2771 83.5482L56.3161 76.5899V73.9117L44.2518 80.8449L44.2771 83.5482ZM56.3161 68.6306L44.2518 75.5636L44.2769 78.2669L56.3158 71.3086V68.6306H56.3161ZM56.3161 63.3245L44.2518 70.2574L44.2769 72.9605L56.3158 66.0025V63.3245H56.3161ZM90.6064 89.2296L93.3597 87.6527L91.6827 86.6765L89.6302 87.8779C89.9806 88.3537 90.3059 88.8045 90.6064 89.2296ZM30.5358 85.5004C30.4857 83.8485 30.2604 82.2216 29.4094 80.795C28.3582 79.0427 26.5811 78.5172 24.879 78.0166C23.1521 77.5157 21.5253 77.0153 20.9996 75.2134C20.674 74.1121 20.6492 73.2861 20.599 72.5351C20.3989 69.1812 19.2724 68.5556 16.4191 67.1788C18.3963 68.5305 19.823 69.2313 19.9983 72.5602C20.0485 73.3363 20.0984 74.2121 20.4237 75.3634C20.6991 76.3647 21.2496 76.9905 21.9504 77.4661C19.4475 77.9165 18.6215 77.0906 16.7692 75.8141C18.1209 78.142 20.1232 78.6427 22.7513 77.8917C23.352 78.1668 24.0278 78.3673 24.7286 78.5677C26.3055 79.043 27.9825 79.5436 28.9085 81.0704C30.0849 83.0478 30.0099 85.5505 29.9095 87.8533C29.8844 88.0783 29.8844 88.3038 29.8844 88.5291C29.8343 89.6307 29.8095 90.6816 29.9346 91.6076C27.7319 89.0796 24.8035 88.9043 22.1504 90.8065C24.5532 89.4551 28.0572 89.0796 30.4102 93.2846C31.2612 95.1618 32.5376 96.1129 34.0895 96.8137V96.2132C32.9131 95.4623 31.8368 94.6112 31.1862 93.485C31.1611 93.4597 31.0861 93.2846 30.9359 93.0092C30.8107 92.7343 30.7107 92.4587 30.6357 92.1835C30.3605 91.0571 30.4355 89.6307 30.5105 88.1287V87.8784C30.7859 85.1751 32.3377 83.5984 34.0646 81.9964V81.5961C32.4381 82.547 31.512 83.3227 30.5358 85.5004ZM91.007 89.7556C91.1821 90.0059 91.3574 90.2309 91.5076 90.4313L92.6341 91.0822L95.9878 89.13L94.0106 88.0036L91.007 89.7556ZM97.3643 85.3501L95.6873 84.3739L92.3333 86.3261L94.0103 87.3023L97.3643 85.3501ZM99.9924 86.8521L98.015 85.7256L94.661 87.6529L96.6384 88.7791L99.9924 86.8521ZM105.299 53.2876C105.299 53.1373 105.299 53.0122 105.299 52.887C105.299 48.5317 108.377 46.7797 112.182 48.9825C115.986 51.1852 119.065 56.4913 119.065 60.8463C119.065 61.0214 119.065 61.1967 119.04 61.347C119.04 61.3971 119.04 61.422 119.04 61.4721C119.04 61.6221 119.015 61.7724 118.99 61.9226V61.9477C118.965 62.0977 118.94 62.2479 118.914 62.3982C118.914 62.4233 118.889 62.4734 118.889 62.4983C118.864 62.6234 118.814 62.7486 118.789 62.8737V62.8988C118.739 63.024 118.714 63.1491 118.664 63.2743C118.639 63.2994 118.639 63.3493 118.614 63.3744C118.564 63.4745 118.514 63.5996 118.464 63.6997C118.464 63.7248 118.439 63.7248 118.439 63.7499C118.389 63.8499 118.314 63.9751 118.264 64.0752C118.239 64.1003 118.214 64.1253 118.214 64.1504C118.164 64.2254 118.089 64.3004 118.039 64.4007C118.013 64.4258 118.013 64.4509 117.989 64.4509C117.913 64.5259 117.838 64.6262 117.763 64.7012C117.738 64.7263 117.713 64.7514 117.688 64.7762C117.638 64.8264 117.563 64.9014 117.488 64.9515C117.463 64.9766 117.438 65.0017 117.413 65.0017C117.338 65.0767 117.237 65.1269 117.162 65.177C117.137 65.2021 117.087 65.2272 117.062 65.252C116.987 65.2771 116.937 65.327 116.862 65.3521C116.837 65.3772 116.787 65.3772 116.762 65.4023C116.662 65.4522 116.587 65.4773 116.487 65.5023C116.437 65.5274 116.387 65.5274 116.337 65.5525C116.261 65.5776 116.212 65.5776 116.136 65.6027C116.086 65.6027 116.036 65.6278 115.986 65.6278C115.886 65.6528 115.786 65.6528 115.686 65.6779C115.636 65.6779 115.561 65.6779 115.511 65.6779C115.461 65.6779 115.386 65.6779 115.336 65.6779C115.286 65.6779 115.211 65.6779 115.16 65.6779C115.035 65.6779 114.91 65.6528 114.81 65.6528C114.76 65.6528 114.735 65.6528 114.685 65.6278C114.56 65.6027 114.435 65.6027 114.334 65.5776C114.309 65.5776 114.309 65.5776 114.285 65.5776C114.135 65.5525 113.984 65.5026 113.859 65.4775C113.859 65.4775 113.859 65.4775 113.834 65.4775C113.258 65.3022 112.682 65.027 112.157 64.7266C112.132 64.7015 112.107 64.7015 112.082 64.6764C111.982 64.6265 111.881 64.5512 111.806 64.5011C111.756 64.4511 111.681 64.4261 111.631 64.3759C111.581 64.326 111.506 64.3009 111.456 64.2507C111.406 64.2257 111.381 64.2006 111.331 64.1757C110.255 63.3997 109.254 62.3987 108.402 61.2223C108.327 61.0972 108.227 60.9971 108.152 60.8719C108.152 60.8468 108.127 60.8468 108.127 60.8218C108.052 60.7217 107.977 60.6216 107.902 60.5215C107.877 60.4714 107.852 60.4465 107.827 60.3964C107.777 60.3214 107.727 60.221 107.652 60.146C107.601 60.071 107.551 59.9707 107.501 59.8957C107.476 59.8456 107.451 59.8207 107.426 59.7706C106.375 57.9935 105.624 55.9912 105.399 54.1389C105.399 54.1389 105.399 54.1389 105.399 54.1138C105.374 53.9886 105.374 53.8635 105.349 53.7383C105.349 53.7132 105.349 53.7132 105.349 53.6881C105.349 53.563 105.324 53.4629 105.324 53.3377C105.299 53.3375 105.299 53.3127 105.299 53.2876ZM108.653 60.4959C108.878 60.6961 109.228 60.6961 109.428 60.4959L112.582 57.3421C112.682 57.242 112.757 57.0918 112.757 56.9415V51.3349C112.757 51.0347 112.507 50.7844 112.207 50.7844C111.906 50.7844 111.656 51.0347 111.656 51.3349V56.7163L108.652 59.7199C108.427 59.9454 108.427 60.2958 108.653 60.4959ZM99.9924 76.7903L100.093 76.7402C99.9924 76.3898 100.067 76.0143 100.318 75.9145C100.718 75.7141 101.244 76.3145 101.394 76.6401C101.419 76.6654 101.444 76.7153 101.444 76.7653C101.569 77.0657 101.619 77.3161 101.569 77.4914C101.544 77.6414 101.469 77.7916 101.319 77.8415H101.294C101.093 77.9168 100.843 77.8415 100.543 77.5664L100.468 77.6165C100.793 77.992 101.369 78.4174 101.869 78.142L104.623 76.5648L106.475 77.6411C106.4 77.5912 106.325 77.516 106.275 77.441C106.275 77.441 106.275 77.4159 106.249 77.4159C106.249 77.3906 106.224 77.3906 106.224 77.366C106.124 77.1405 106.149 76.8651 106.199 76.5899C106.274 76.1894 106.45 75.7888 106.7 75.4136C106.725 75.3885 106.725 75.3634 106.75 75.3634L106.775 75.3386C106.775 75.3386 106.775 75.3386 106.775 75.3132C106.8 75.2882 106.8 75.2633 106.825 75.2633C107 75.0381 107.201 74.8628 107.426 74.7627C107.626 74.6626 107.851 74.6125 108.076 74.6874L108.127 74.7125L105.874 73.3859C105.699 73.1607 105.498 72.9856 105.273 72.8605C104.948 72.6601 104.647 72.6601 104.422 72.7852L100.067 75.3132C99.6671 75.6639 99.8171 76.3145 99.9924 76.7903ZM93.7098 43.6763C93.76 43.6512 93.8099 43.6512 93.8601 43.6011L95.1114 42.8752L97.0137 41.7738L99.6917 40.222C100.468 39.7715 101.094 38.545 101.094 37.4938C101.094 37.4186 101.094 37.3436 101.094 37.2686C101.094 37.2435 101.094 37.2184 101.094 37.1936C101.094 37.1434 101.094 37.1183 101.068 37.0684C101.068 37.0433 101.068 37.0183 101.043 36.9932C101.043 36.9681 101.018 36.9182 101.018 36.8931C101.018 36.868 100.993 36.8429 100.993 36.8179C100.968 36.7928 100.968 36.7429 100.943 36.7178C100.918 36.6927 100.918 36.6676 100.893 36.6425C100.868 36.6175 100.868 36.5675 100.843 36.5425C100.843 36.5174 100.818 36.5174 100.818 36.4923C100.793 36.4672 100.768 36.4421 100.768 36.4173L100.743 36.3922C100.718 36.3671 100.693 36.3423 100.643 36.3172C100.643 36.3172 100.643 36.3172 100.617 36.3172C100.568 36.2921 100.517 36.2671 100.492 36.2422C100.267 36.167 99.9917 36.1921 99.7163 36.3674C99.466 36.5174 99.2156 36.7429 99.0157 37.0431C98.7654 36.017 97.9894 35.6164 97.0383 36.1421C95.9871 36.7429 95.1109 38.3449 95.0109 39.8214C94.5855 40.147 94.21 40.7726 94.0848 41.3984C94.0347 41.4234 93.9847 41.4483 93.9095 41.4734C93.4841 41.7237 93.1337 42.3743 93.1337 42.975C93.0843 43.5261 93.3597 43.7764 93.7098 43.6763ZM80.5946 86.7269C80.5946 86.7517 80.5695 86.7517 80.5695 86.7768C80.3945 87.077 80.1441 87.6527 79.8936 88.3786L80.7948 88.904L82.547 87.903V87.5027C82.1713 87.077 81.8209 86.6516 81.4958 86.226L80.5946 86.7269ZM80.0192 93.0842L81.9965 94.2104L85.3504 92.2583L83.373 91.1321L80.0192 93.0842ZM84.4994 90.5063L84.0239 90.7814L86.0011 91.9079L86.677 91.5324C86.2514 91.1569 85.8012 90.7814 85.3504 90.3558L84.7996 90.6814L84.4994 90.5063ZM82.5219 88.6291L81.4206 89.2552L83.398 90.3814L83.8736 90.106L82.547 89.3302V88.6294H82.5219V88.6291ZM66.1277 95.0617L62.7737 97.0139L64.7509 98.14L68.1047 96.213L66.1277 95.0617ZM118.564 92.1582C118.564 92.2332 118.539 92.2834 118.539 92.3333C118.539 92.3586 118.539 92.3586 118.539 92.3832C118.539 92.4333 118.514 92.4584 118.489 92.5083C118.489 92.5337 118.464 92.5585 118.464 92.5836C118.439 92.6089 118.439 92.6335 118.414 92.6837C118.389 92.7087 118.389 92.7338 118.364 92.7587C118.339 92.784 118.339 92.8088 118.314 92.8339C118.289 92.8592 118.264 92.9092 118.239 92.934C118.239 92.9591 118.214 92.9591 118.189 92.9842C118.163 93.009 118.139 93.0591 118.114 93.084C118.114 93.084 118.088 93.1093 118.063 93.1093C118.038 93.1341 117.988 93.1843 117.963 93.2091C117.913 93.2593 117.863 93.2844 117.788 93.3092L71.2588 120.166C70.3327 120.692 69.2063 120.692 68.2803 120.166L37.394 102.345C37.3439 102.32 37.2689 102.27 37.2187 102.22L37.1936 102.195C37.1435 102.17 37.1184 102.12 37.0685 102.095C37.0685 102.095 37.0685 102.07 37.0434 102.07C36.9932 102.02 36.9684 101.995 36.9433 101.945C36.9433 101.945 36.9433 101.945 36.9433 101.919C36.9182 101.869 36.8683 101.819 36.8432 101.769C36.8432 101.769 36.8432 101.769 36.8432 101.744C36.8182 101.694 36.7931 101.644 36.7682 101.594V101.569C36.7432 101.519 36.7432 101.469 36.7181 101.419V101.394C36.7181 101.344 36.693 101.294 36.693 101.244C36.693 101.219 36.693 101.219 36.693 101.194C36.6428 100.643 36.8683 100.092 37.369 99.7671C36.693 100.118 35.9423 99.9171 35.5169 99.3916C35.5169 99.3916 35.5169 99.3916 35.4918 99.3666C35.4667 99.3164 35.4417 99.2913 35.4168 99.2414L35.3917 99.2161C35.3667 99.1662 35.3416 99.1411 35.3416 99.0909C35.3416 99.0658 35.3165 99.0658 35.3165 99.041C35.2914 98.9908 35.2914 98.9658 35.2666 98.9158C35.2666 98.8908 35.2415 98.8657 35.2415 98.8406C35.2415 98.7907 35.2164 98.7656 35.2164 98.7154C35.2164 98.6904 35.2164 98.6655 35.2164 98.6655C35.2164 98.5903 35.1913 98.5404 35.1913 98.4651V62.8489C35.1913 61.7977 35.767 60.7964 36.6682 60.271L83.2729 33.3643C83.398 33.289 83.5232 33.2391 83.6732 33.214C83.7231 33.189 83.7984 33.189 83.8483 33.189C83.8736 33.189 83.8984 33.189 83.8984 33.189C83.9484 33.189 83.9985 33.189 84.0236 33.189C84.0487 33.189 84.0735 33.189 84.1237 33.189C84.1488 33.189 84.1987 33.189 84.2235 33.189C84.2488 33.189 84.2988 33.214 84.3236 33.214C84.3489 33.214 84.3737 33.214 84.3988 33.2391C84.4239 33.2391 84.4487 33.2642 84.4989 33.2642C84.524 33.2642 84.5488 33.2893 84.599 33.2893C84.6241 33.2893 84.6489 33.3144 84.674 33.3144C84.6991 33.3395 84.7492 33.3395 84.7741 33.3645C85.1997 33.6149 85.4999 34.0653 85.4999 34.641V54.1639C87.0019 54.9149 88.1281 56.9674 88.9791 59.3951C90.7313 64.476 91.2317 71.2341 91.2317 71.2341C90.9814 71.3841 90.7311 71.5093 90.4557 71.5845C90.4058 71.6096 90.3559 71.6096 90.3057 71.6347C90.2806 71.6347 90.2806 71.6347 90.2558 71.6598C90.2304 71.6598 90.2056 71.6849 90.1805 71.6849C89.8301 71.7849 89.5046 71.81 89.2043 71.735C89.1542 71.735 89.1043 71.7099 89.0543 71.6849H89.029C88.9791 71.6598 88.954 71.6598 88.9038 71.6347C88.9038 71.6347 88.8788 71.6347 88.8788 71.6096C88.8537 71.5845 88.8038 71.5594 88.7787 71.5346L88.7536 71.5095C88.7285 71.4844 88.6786 71.4594 88.6535 71.4345L88.6284 71.4094C88.6034 71.3844 88.5785 71.3593 88.5534 71.3094C88.5281 71.2843 88.5033 71.2344 88.4782 71.2093C88.1278 68.306 86.5261 64.8269 85.5749 62.9497V70.2582C85.5749 70.4586 85.5496 70.6337 85.5248 70.8338C85.4749 70.7337 85.4498 70.6838 85.4498 70.6838C84.2483 72.5861 76.9898 71.4847 76.1388 71.2093C76.1137 71.2093 76.0635 71.1842 76.0387 71.1591C76.0387 71.1591 76.0136 71.1591 76.0136 71.1341C75.9885 71.1341 75.9885 71.109 75.9637 71.109L75.9384 71.0839L75.9133 71.0588C75.9133 71.0588 75.9133 71.0588 75.8882 71.0337C75.8882 71.0337 75.8882 71.0337 75.8882 71.0086C75.0622 70.1077 74.161 66.5034 73.6105 63.1745C73.16 63.6249 72.6845 63.9756 72.1838 64.2257C71.6333 64.476 71.0325 64.5761 70.3067 64.476C69.0801 64.2758 66.4771 60.2461 65.0253 57.8683C64.3995 56.8422 63.9992 56.1163 63.9992 56.1163L65.6261 54.94C65.8513 55.3155 66.2519 55.791 66.7525 56.3416C68.2542 57.9436 70.5319 59.896 70.5319 59.896C70.5319 59.896 71.9837 57.8184 72.8344 56.9423C72.8595 56.9172 72.9094 56.8673 72.9345 56.8422C73.3599 56.4417 74.286 55.6408 75.2872 54.7897L75.3123 54.7647V54.7145L76.2885 53.3879C76.2885 53.413 76.2885 53.4381 76.2885 53.4631C76.2885 53.5381 76.2885 53.6131 76.2885 53.6633C76.2386 53.9886 76.2135 54.5893 76.2135 54.5893L76.9143 55.9159C76.9143 55.9159 77.74 54.9648 78.4659 54.2891C78.5161 54.2392 78.566 54.189 78.5911 54.1391C78.5911 54.1391 78.5911 54.114 78.6164 54.114C78.6663 54.0641 78.6914 54.0139 78.7415 53.964C79.0919 53.5136 79.4674 52.8878 79.7677 52.3121C79.7677 52.3121 79.7677 52.3121 79.7677 52.287C79.7927 52.212 79.8429 52.1619 79.8677 52.0869C79.8677 52.0618 79.8928 52.0367 79.8928 52.0367C79.9182 51.9866 79.943 51.9366 79.9681 51.9116C79.9932 51.8865 79.9931 51.8363 80.018 51.8115C80.018 51.7864 80.0433 51.7613 80.0433 51.7365C80.0684 51.6863 80.0932 51.6364 80.0932 51.6113C80.0932 51.6113 80.0932 51.6113 80.0932 51.5862C80.1685 51.4109 80.2184 51.286 80.2432 51.1859C80.2686 51.2609 80.3185 51.3111 80.3433 51.3613C80.6185 51.8117 81.4196 52.3375 81.4196 52.3375L81.2192 52.7378C81.5696 52.8378 81.945 52.963 82.3707 53.1132V37.4948L38.3188 62.8998V95.5631L76.2383 73.5121C76.4388 74.5633 76.664 75.8146 76.889 76.9662C77.1644 78.4179 77.3899 79.7445 77.4897 80.3701C77.4646 80.4453 77.4147 80.5454 77.3899 80.6204L42.2736 100.894L60.57 111.457L89.9794 94.4868C90.0295 94.612 90.0795 94.7371 90.1045 94.8372C90.1798 95.3379 88.0774 97.6156 88.4278 98.5416C88.4529 98.6166 88.5028 98.6916 88.5276 98.7668L81.845 102.646C81.6197 102.771 81.6197 103.097 81.845 103.222L88.7779 107.227C88.9783 107.352 89.2284 107.352 89.4288 107.227L99.8911 101.195C100.116 101.069 100.116 100.744 99.8911 100.619L92.9579 96.614C92.9328 96.5892 92.908 96.5892 92.8829 96.5892C93.2584 96.1636 93.5834 95.7379 93.834 95.3125C94.4598 94.3614 94.7849 93.5603 93.5084 92.6342C93.4583 92.6094 93.4332 92.5843 93.3833 92.5592L103.22 86.8774L97.3129 83.4735L97.3879 83.4236V78.9434L117.837 90.7571C118.389 91.0069 118.639 91.6076 118.564 92.1582ZM77.4659 56.4412C77.2406 56.3662 77.0405 56.316 76.8401 56.3662C76.7648 56.3912 76.6901 56.4163 76.6148 56.4412C76.6148 56.4412 74.8879 65.2264 74.7374 65.9272C74.5874 66.628 76.2642 67.9546 76.2642 67.9546C76.2642 67.9546 78.1664 66.1525 78.4669 65.702C78.7925 65.2267 77.4659 56.4412 77.4659 56.4412ZM86.4516 77.1656L86.6269 77.0655V76.1144C86.6269 75.8891 86.752 75.6639 86.9522 75.5387L87.9786 74.938C87.8785 74.7629 87.4528 73.8868 87.6031 73.2359L86.9522 72.8605C86.6269 72.6851 86.2765 72.5602 85.9261 72.5101C85.9512 72.5602 85.9512 72.6101 85.976 72.6601C86.1764 73.4612 85.6758 74.9378 85.15 76.3895L86.4516 77.1656ZM44.7527 46.3544C46.4796 45.3533 47.8563 42.65 47.8563 40.2973C47.8563 40.1721 47.8563 40.0469 47.8312 39.9218C47.8312 39.8967 47.8312 39.8716 47.8312 39.8468C47.8312 39.7216 47.8062 39.6215 47.7811 39.4964C47.7811 39.4713 47.7811 39.4462 47.7811 39.4214C47.756 39.3213 47.756 39.221 47.7309 39.146C47.7309 39.1209 47.7309 39.0958 47.7058 39.0958C47.6808 38.9957 47.6557 38.8957 47.6058 38.8207C47.6058 38.7956 47.5807 38.7705 47.5807 38.7454C47.5556 38.6704 47.5054 38.5701 47.4806 38.4951C47.4806 38.4951 47.4806 38.47 47.4555 38.47C47.4056 38.395 47.3805 38.3198 47.3304 38.2699C47.3053 38.2448 47.3053 38.2197 47.2804 38.2197C47.2303 38.1445 47.1804 38.0945 47.1302 38.0193L47.1051 37.9942C47.055 37.944 47.005 37.8941 46.9549 37.844L46.9298 37.8189C46.8546 37.7687 46.8046 37.7188 46.7294 37.6937C46.7294 37.6937 46.7043 37.6937 46.7043 37.6686C46.1786 37.3684 45.478 37.4183 44.7271 37.844C44.1514 38.1695 43.6257 38.695 43.1502 39.3208C42.5996 37.0431 40.8725 36.1421 38.7949 37.3436C36.4422 38.695 34.5149 42.2494 34.2896 45.5031C33.3385 46.2289 32.5376 47.5804 32.2372 48.9822C32.112 49.0324 31.9868 49.0823 31.8617 49.1575C30.9356 49.7081 30.1596 51.1849 30.1596 52.4614C30.1596 53.7378 30.9106 54.3636 31.8617 53.8128L34.615 52.2359L38.82 49.8082L44.7527 46.3544ZM53.463 101.619L51.4857 100.493L48.1317 102.445L50.109 103.572L53.463 101.619ZM56.0908 103.146L54.1136 102.02L50.7598 103.947L52.7371 105.074L56.0908 103.146ZM57.5426 93.9854L59.5198 95.1116L62.8738 93.1595L60.8966 92.0333L57.5426 93.9854ZM53.538 96.288L55.5152 97.4144L58.8692 95.462L56.8919 94.3358L53.538 96.288ZM61.3222 106.15L59.345 105.023L55.991 106.975L57.9682 108.102L61.3222 106.15ZM45.5285 100.919L47.5057 102.045L50.8597 100.118L48.8824 98.9913L45.5285 100.919ZM63.3494 101.97L66.7033 100.017L64.7261 98.8913L61.3721 100.819L63.3494 101.97ZM58.6941 104.648L56.7169 103.521L53.3629 105.449L55.3401 106.575L58.6941 104.648ZM76.0893 84.249C76.0893 84.1489 76.2393 83.6982 76.4648 83.0727L73.5864 84.7497L75.5636 85.8759L75.8892 85.7008C76.0144 84.8746 76.0893 84.3243 76.0893 84.249ZM136.711 66.8284L119.14 76.9902L116.212 78.6672C116.062 78.7673 115.11 79.6437 113.308 78.592L108.528 75.839L107.977 75.5636C107.727 75.5137 107.501 75.5636 107.351 75.6887L107.326 75.7141C107.226 75.7893 107.176 75.9145 107.126 76.0143C107.126 76.0143 107.126 76.0143 107.126 76.0396C107.126 76.0645 107.1 76.1146 107.1 76.1395C107.1 76.1648 107.1 76.1648 107.1 76.1894C107.1 76.2147 107.1 76.2395 107.1 76.2395C107.1 76.2646 107.1 76.2897 107.1 76.3396C107.1 76.4896 107.176 76.6652 107.301 76.7901C107.326 76.8152 107.351 76.8152 107.351 76.84C107.376 76.8653 107.401 76.8899 107.451 76.9152L112.582 79.8938C114.985 81.2703 116.687 80.1689 117.012 79.9437L120.617 77.8664L137.461 68.155C138.287 67.6293 137.537 66.3529 136.711 66.8284ZM75.5388 86.6017L72.1848 88.5539L74.162 89.6801L75.3133 89.0044C75.4635 88.1784 75.5887 87.3773 75.7139 86.6765L75.5388 86.6017ZM67.9299 105.349L65.9526 104.222L62.5986 106.15L64.5759 107.276L67.9299 105.349ZM63.9252 107.677L61.948 106.55L58.594 108.478L60.5712 109.604L63.9252 107.677ZM75.3886 101.044C74.4124 101.044 72.9107 101.044 71.5088 101.018L70.6079 101.544L72.5851 102.67L75.3886 101.044ZM71.9345 103.046L69.9573 101.92L66.6035 103.847L68.5807 104.973L71.9345 103.046ZM49.5331 98.6156L51.5103 99.742L54.8643 97.7899L52.8871 96.6635L49.5331 98.6156ZM56.1661 97.8147L58.1433 98.9412L61.497 97.0139L59.5198 95.8877L56.1661 97.8147ZM52.1612 100.118L54.1384 101.244L57.4924 99.3164L55.5152 98.1902L52.1612 100.118ZM60.0957 100.818L60.7466 100.443L64.1006 98.5155L62.1233 97.3891L59.3199 99.0162L58.1185 99.7167L54.7645 101.669L56.7417 102.795L60.0957 100.818ZM62.6987 102.345L60.7215 101.219L57.3675 103.146L59.3447 104.272L62.6987 102.345ZM72.1098 93.8854L70.1326 92.7589L66.7786 94.6865L68.7558 95.8127L72.1098 93.8854ZM60.1707 95.4871L62.1479 96.6133L65.5019 94.6862L63.5247 93.5598L60.1707 95.4871ZM64.1753 93.1843L66.1525 94.3107L69.5065 92.3583L67.5293 91.2322L64.1753 93.1843ZM68.1802 90.8567L70.1574 91.9829L73.5112 90.0307L71.5339 88.9043L68.1802 90.8567ZM61.5472 91.6824L63.5244 92.8088L66.8784 90.8815L64.9012 89.7553L61.5472 91.6824ZM65.3268 103.847L63.3496 102.721L59.9956 104.673L61.9728 105.799L65.3268 103.847ZM65.5521 89.3548L67.5293 90.481L70.8833 88.5539L68.9061 87.4274L65.5521 89.3548ZM72.9358 85.1001L69.5818 87.0274L71.559 88.1536L74.913 86.2263L72.9358 85.1001ZM69.3315 101.519L67.3542 100.393L64.0002 102.345L65.9775 103.472L69.3315 101.519ZM74.1372 95.7374C74.1623 95.5373 74.2122 95.3371 74.2373 95.1116L72.7604 94.2606L69.4065 96.213L71.3837 97.3392L74.1372 95.7374ZM74.5877 93.2094L73.4113 93.8854L74.3624 94.4362C74.4374 94.0607 74.5124 93.635 74.5877 93.2094Z" fill="#36F3AF"/>
<path d="M74.087 46.855C74.1871 46.9302 74.2872 47.0052 74.3873 47.0554C74.4374 47.0805 74.4874 47.1056 74.5375 47.1304H74.5626C74.6878 47.1806 74.8129 47.2305 74.9381 47.2556H74.9634C75.0133 47.2556 75.0886 47.2806 75.1385 47.2806C75.1636 47.2806 75.1636 47.2806 75.1884 47.2806C75.3386 47.3057 75.4889 47.3057 75.6389 47.3057C75.664 47.3057 75.6888 47.3057 75.7141 47.3057C75.764 47.3057 75.8393 47.3057 75.8892 47.2806C75.9145 47.2806 75.9391 47.2806 75.9644 47.2806C76.0394 47.2806 76.1395 47.2556 76.2148 47.2305C78.5424 46.7298 78.8178 46.5297 78.8178 46.5297C78.8178 46.5297 78.5926 48.8824 79.118 48.6822C79.6435 48.4821 80.0192 47.6561 80.3694 48.0314C80.7198 48.3818 80.6448 49.9838 80.1191 50.3339C79.5936 50.6843 79.3182 50.6843 79.3683 50.8095C79.3683 50.8095 79.3683 50.8345 79.3934 50.8345C79.3934 50.8345 79.3934 50.8596 79.4188 50.8596C79.4188 50.8596 79.4438 50.8847 79.4687 50.8847C79.4935 50.8847 79.4938 50.9098 79.5186 50.9098L79.5439 50.9349C79.569 50.96 79.5938 50.96 79.6189 50.985C79.7689 51.0603 79.9445 51.1102 80.1697 51.0851C80.5201 51.035 80.9455 50.7849 81.3461 50.0088C82.247 48.2568 82.7978 42.8005 78.3425 42.4752C73.8871 42.1248 73.1613 45.6538 73.1613 45.6538C73.1613 45.6538 73.2363 45.8791 73.4116 46.1545C73.5864 46.4045 73.7866 46.6548 74.087 46.855Z" fill="#1F2D3E"/>
</svg>
