<svg width="24" height="24" viewBox="0 0 24 24" fill="none" xmlns="http://www.w3.org/2000/svg">
<path d="M16.2532 0.444946C18.0228 0.444946 19.4572 1.87944 19.4572 3.64898C19.4572 4.23882 18.9791 4.71699 18.3892 4.71699C17.7993 4.71699 17.3212 4.23882 17.3212 3.64898C17.3212 3.05914 16.843 2.58097 16.2532 2.58097H3.43706C2.84722 2.58097 2.36905 3.05914 2.36905 3.64898V20.7371C2.36905 21.327 2.84722 21.8051 3.43706 21.8051H16.2532C16.843 21.8051 17.3212 21.327 17.3212 20.7371V19.6691C17.3212 19.0793 17.7993 18.6011 18.3892 18.6011C18.9791 18.6011 19.4572 19.0793 19.4572 19.6691V20.7371C19.4572 22.5067 18.0228 23.9412 16.2532 23.9412H3.43706C1.66753 23.9412 0.233032 22.5067 0.233032 20.7371V3.64898C0.233032 1.87944 1.66753 0.444946 3.43706 0.444946H16.2532Z" fill="white"/>
<path fill-rule="evenodd" clip-rule="evenodd" d="M21.3786 8.13559C21.0584 7.81537 20.5393 7.81537 20.219 8.13559L11.892 16.4627C11.7346 16.62 11.6303 16.8227 11.5937 17.0423L11.4181 18.0962L12.472 17.9205C12.6915 17.884 12.8943 17.7796 13.0516 17.6223L21.3786 9.29522C21.6989 8.97499 21.6989 8.45581 21.3786 8.13559ZM18.7086 6.6252C19.863 5.47081 21.7347 5.4708 22.8891 6.62519C24.0434 7.77959 24.0434 9.65122 22.8891 10.8056L14.5621 19.1327C14.0898 19.6049 13.4819 19.9177 12.8231 20.0275L11.7692 20.2032C10.3236 20.4441 9.07014 19.1908 9.31109 17.745L9.48675 16.6911C9.59654 16.0324 9.90938 15.4245 10.3816 14.9522L18.7086 6.6252Z" fill="white"/>
<path d="M4.50511 6.85303C4.50511 6.26319 4.98328 5.78502 5.57312 5.78502H14.1172C14.7071 5.78502 15.1852 6.26319 15.1852 6.85303C15.1852 7.44287 14.7071 7.92104 14.1172 7.92104H5.57312C4.98328 7.92104 4.50511 7.44287 4.50511 6.85303Z" fill="white"/>
<path d="M4.50511 11.125C4.50511 10.5351 4.98328 10.057 5.57312 10.057H9.84516C10.435 10.057 10.9132 10.5351 10.9132 11.125C10.9132 11.7148 10.435 12.193 9.84516 12.193H5.57312C4.98328 12.193 4.50511 11.7148 4.50511 11.125Z" fill="white"/>
<path d="M4.50511 15.3972C4.50511 14.8073 4.98328 14.3292 5.57312 14.3292H6.64113C7.23097 14.3292 7.70914 14.8073 7.70914 15.3972C7.70914 15.987 7.23097 16.4652 6.64113 16.4652H5.57312C4.98328 16.4652 4.50511 15.987 4.50511 15.3972Z" fill="white"/>
</svg>
