<svg width="16" height="16" viewBox="0 0 16 16" fill="none" xmlns="http://www.w3.org/2000/svg">
<path d="M8.25159 0.000167879C8.06112 0.000167879 7.90777 0.15351 7.90777 0.343985V0.687802C7.90777 0.878276 8.06112 1.03162 8.25159 1.03162H11.6911L11.6966 3.26106C11.6966 3.54481 11.9272 3.77465 12.211 3.77544L14.4404 3.78131V13.5808C14.4404 13.8754 14.2193 14.0965 13.9247 14.0965H6.01692C5.72227 14.0965 5.50119 13.8754 5.50119 13.5808V13.065C5.50119 12.8746 5.34785 12.7212 5.15737 12.7212H4.81356C4.62308 12.7212 4.46974 12.8746 4.46974 13.065V13.5808C4.46974 14.429 5.16869 15.1279 6.01692 15.1279H13.9247C14.7729 15.1279 15.4719 14.429 15.4719 13.5808V3.09905C15.4718 2.96228 15.4175 2.83113 15.3208 2.73442L12.7374 0.151091C12.6408 0.0543413 12.5096 3.43817e-05 12.3728 0L8.25159 0.000167879ZM4.4696 7.22032C4.4696 7.4108 4.62295 7.56414 4.81342 7.56414H5.15724C5.34771 7.56414 5.50106 7.4108 5.50106 7.22032V3.78215C5.50106 3.59168 5.34771 3.43834 5.15724 3.43834H4.81342C4.62295 3.43834 4.4696 3.59168 4.4696 3.78215V7.22032Z" fill="white"/>
<path d="M6.01679 0.000366211C5.1686 0.000366211 4.46962 0.699312 4.46962 1.54754V2.40708C4.46962 2.59756 4.62296 2.7509 4.81344 2.7509H5.15725C5.34773 2.7509 5.50107 2.59756 5.50107 2.40708V1.54754C5.50107 1.25293 5.72218 1.03182 6.01679 1.03182H6.87634C7.06681 1.03182 7.22015 0.878475 7.22015 0.688V0.344183C7.22015 0.153709 7.06681 0.000366211 6.87634 0.000366211H6.01679ZM0.687634 8.25197C0.306681 8.25197 0 8.55866 0 8.9396V11.3463C0 11.7273 0.306681 12.034 0.687634 12.034H9.28305C9.66401 12.034 9.97069 11.7273 9.97069 11.3463V8.9396C9.97069 8.55866 9.66401 8.25197 9.28305 8.25197H0.687634ZM4.99542 9.14173C5.5207 9.14173 5.89794 9.55858 5.89794 10.143C5.89794 10.7306 5.5207 11.1442 4.99542 11.1442C4.4767 11.1442 4.08887 10.7306 4.08887 10.143C4.08887 9.55531 4.46357 9.14173 4.99542 9.14173ZM7.01265 9.14173C7.16676 9.14173 7.31462 9.17773 7.47197 9.24649C7.51137 9.17429 7.55083 9.14442 7.62306 9.14442C7.72483 9.14442 7.76744 9.18715 7.76744 9.32506L7.77146 9.74207C7.77146 9.87994 7.73818 9.92942 7.60358 9.92942C7.50509 9.92942 7.46927 9.8801 7.43973 9.77833C7.38721 9.59119 7.28865 9.49294 7.05227 9.49294C6.72725 9.49294 6.54326 9.71618 6.54326 10.143C6.54326 10.5665 6.72732 10.793 7.05562 10.793C7.35766 10.793 7.53837 10.5694 7.68282 10.5694C7.76489 10.5694 7.83056 10.6483 7.83056 10.7534C7.83056 10.9241 7.46593 11.1476 7.02272 11.1476C6.45804 11.1476 6.08394 10.7339 6.08394 10.143C6.08394 9.58158 6.46439 9.14173 7.01265 9.14173ZM2.34427 9.19411H2.64578H2.74113C3.04645 9.19411 3.29961 9.20098 3.49659 9.31901C3.74938 9.47332 3.89681 9.76215 3.89681 10.143C3.89681 10.5402 3.72916 10.8454 3.44354 10.9965C3.27612 11.0884 3.06936 11.0945 2.82642 11.0945H2.64578H2.34427C2.20966 11.0945 2.14013 11.0518 2.14013 10.9172C2.14013 10.8023 2.2025 10.7433 2.31741 10.7433H2.34426V9.54867H2.31741C2.2025 9.54867 2.14013 9.48629 2.14013 9.37139C2.14013 9.24005 2.20638 9.19411 2.34427 9.19411ZM4.99542 9.51241C4.72621 9.51241 4.55222 9.73588 4.55222 10.143C4.55222 10.5501 4.73278 10.7762 4.99542 10.7762C5.26134 10.7762 5.43862 10.5533 5.43862 10.143C5.43862 9.73258 5.26134 9.51241 4.99542 9.51241ZM2.85261 9.53861C2.82307 9.53861 2.79076 9.53846 2.75792 9.54205V10.74C2.79076 10.7435 2.81971 10.7435 2.84925 10.7435C3.24978 10.7435 3.4375 10.5534 3.4375 10.1398C3.4375 9.73597 3.24656 9.53861 2.85261 9.53861Z" fill="#EF7DF1"/>
</svg>
