<svg width="35" height="30" viewBox="0 0 35 30" fill="none" xmlns="http://www.w3.org/2000/svg">
<g opacity="0.5">
<mask id="path-1-outside-1_13_413" maskUnits="userSpaceOnUse" x="19.6461" y="6.67017" width="9" height="9" fill="black">
<rect fill="white" x="19.6461" y="6.67017" width="9" height="9"/>
<path d="M27.1136 6.67017V13.2906C27.1136 13.6864 27.1136 13.8842 26.9602 13.9641C26.8069 14.0441 26.5972 13.9557 26.1776 13.7787L24.1691 12.9313C24.0271 12.8715 23.9562 12.8415 23.8798 12.8415C23.8035 12.8415 23.7325 12.8715 23.5906 12.9313L21.5821 13.7787C21.1625 13.9557 20.9528 14.0441 20.7995 13.9641C20.6461 13.8842 20.6461 13.6864 20.6461 13.2906V6.67017"/>
</mask>
<path d="M26.9602 13.9641L26.4981 13.0773L26.4977 13.0775L26.9602 13.9641ZM26.1776 13.7787L25.7888 14.7001L25.789 14.7001L26.1776 13.7787ZM24.1691 12.9313L24.5578 12.0099L24.557 12.0096L24.1691 12.9313ZM23.5906 12.9313L23.2026 12.0096L23.2018 12.0099L23.5906 12.9313ZM21.5821 13.7787L21.9706 14.7001L21.9708 14.7001L21.5821 13.7787ZM20.7995 13.9641L21.2619 13.0775L21.2616 13.0773L20.7995 13.9641ZM26.1136 6.67017V13.2906H28.1136V6.67017H26.1136ZM26.1136 13.2906C26.1136 13.3943 26.1135 13.4635 26.1117 13.5198C26.1099 13.5778 26.107 13.5872 26.1096 13.5724C26.1121 13.5578 26.1278 13.4724 26.1913 13.3664C26.2646 13.2443 26.3726 13.1427 26.4981 13.0773L27.4222 14.851C27.8845 14.6101 28.0321 14.1871 28.0793 13.9192C28.1173 13.7032 28.1136 13.449 28.1136 13.2906H26.1136ZM26.4977 13.0775C26.555 13.0476 26.6151 13.0258 26.6753 13.0119C26.7346 12.9982 26.7869 12.9939 26.8283 12.9938C26.9051 12.9935 26.9482 13.0075 26.9347 13.0038C26.9229 13.0005 26.8904 12.9902 26.8217 12.9631C26.7541 12.9365 26.6743 12.9029 26.5662 12.8573L25.789 14.7001C25.9723 14.7775 26.2008 14.876 26.4027 14.9317C26.6121 14.9895 27.0093 15.0663 27.4226 14.8508L26.4977 13.0775ZM26.5663 12.8574L24.5578 12.0099L23.7803 13.8526L25.7888 14.7001L26.5663 12.8574ZM24.557 12.0096C24.4906 11.9816 24.2047 11.8415 23.8798 11.8415V13.8415C23.8311 13.8415 23.7868 13.8365 23.7495 13.8293C23.7145 13.8226 23.691 13.8151 23.6843 13.8129C23.6787 13.811 23.6816 13.8117 23.7007 13.8194C23.72 13.8272 23.7434 13.8371 23.7811 13.8529L24.557 12.0096ZM23.8798 11.8415C23.5549 11.8415 23.2691 11.9816 23.2026 12.0096L23.9785 13.8529C24.0162 13.8371 24.0396 13.8272 24.059 13.8194C24.078 13.8117 24.081 13.811 24.0753 13.8129C24.0687 13.8151 24.0452 13.8226 24.0102 13.8293C23.9728 13.8365 23.9286 13.8415 23.8798 13.8415V11.8415ZM23.2018 12.0099L21.1933 12.8574L21.9708 14.7001L23.9793 13.8526L23.2018 12.0099ZM21.1935 12.8573C21.0853 12.9029 21.0056 12.9365 20.9379 12.9631C20.8693 12.9902 20.8368 13.0005 20.8249 13.0038C20.8115 13.0075 20.8546 12.9935 20.9314 12.9938C20.9728 12.9939 21.025 12.9982 21.0844 13.0119C21.1446 13.0258 21.2046 13.0476 21.2619 13.0775L20.3371 14.8508C20.7504 15.0663 21.1475 14.9895 21.3569 14.9317C21.5588 14.876 21.7873 14.7775 21.9706 14.7001L21.1935 12.8573ZM21.2616 13.0773C21.387 13.1427 21.4951 13.2443 21.5683 13.3664C21.6319 13.4724 21.6475 13.5578 21.6501 13.5724C21.6527 13.5872 21.6498 13.5778 21.648 13.5198C21.6462 13.4635 21.6461 13.3943 21.6461 13.2906H19.6461C19.6461 13.449 19.6424 13.7032 19.6804 13.9192C19.7276 14.1871 19.8752 14.6101 20.3374 14.851L21.2616 13.0773ZM21.6461 13.2906V6.67017H19.6461V13.2906H21.6461Z" fill="white" mask="url(#path-1-outside-1_13_413)"/>
</g>
<path d="M1.24329 7.96583C1.24329 6.76184 1.24329 6.15984 1.35542 5.65839C1.84904 3.45093 3.89548 1.72424 6.51174 1.30775C7.10604 1.21313 7.81953 1.21313 9.24648 1.21313C9.87168 1.21313 10.1843 1.21313 10.4847 1.23685C11.78 1.33904 13.0086 1.76844 14.0101 2.46894C14.2424 2.63142 14.4635 2.81794 14.9055 3.19096L15.7953 3.94163C17.1143 5.05456 17.7739 5.61103 18.5636 5.98177C18.9974 6.18543 19.4577 6.34626 19.9352 6.4611C20.8042 6.67013 21.7369 6.67013 23.6023 6.67013H24.2065C28.4628 6.67013 30.5908 6.67013 31.9742 7.71987C32.1014 7.81643 32.2225 7.91861 32.3369 8.02597C33.5811 9.19311 33.5811 10.9887 33.5811 14.5799V17.5841C33.5811 22.729 33.5811 25.3016 31.6867 26.8998C29.7925 28.4981 26.7436 28.4981 20.6459 28.4981H14.1784C8.08072 28.4981 5.0319 28.4981 3.13758 26.8998C1.24329 25.3016 1.24329 22.729 1.24329 17.5841V7.96583Z" stroke="#EF7DF1" stroke-width="1.5"/>
</svg>
