<svg width="25" height="25" viewBox="0 0 25 25" fill="none" xmlns="http://www.w3.org/2000/svg">
<path d="M23.0935 15.8422L19.6566 12.4052M13.3777 18.2711H6.09092M8.51986 13.4133H6.09092M13.3777 9.76985C13.3777 10.4904 13.5914 11.1949 13.9918 11.794C14.3921 12.3932 14.9611 12.8602 15.6269 13.1359C16.2926 13.4117 17.0252 13.4838 17.732 13.3433C18.4387 13.2027 19.0879 12.8557 19.5974 12.3461C20.107 11.8366 20.454 11.1874 20.5946 10.4806C20.7351 9.77389 20.663 9.04132 20.3872 8.37557C20.1115 7.70983 19.6445 7.1408 19.0453 6.74046C18.4462 6.34012 17.7418 6.12643 17.0212 6.12643C16.0549 6.12643 15.1282 6.51029 14.4449 7.19357C13.7616 7.87684 13.3777 8.80355 13.3777 9.76985Z" stroke="white" stroke-width="2" stroke-linecap="round" stroke-linejoin="round"/>
<path d="M18.2356 18.2711V21.9146C18.2356 22.2367 18.1077 22.5456 17.8799 22.7733C17.6522 23.0011 17.3433 23.129 17.0212 23.129H2.44751C2.12541 23.129 1.81651 23.0011 1.58875 22.7733C1.36099 22.5456 1.23304 22.2367 1.23304 21.9146V2.48303C1.23304 2.16093 1.36099 1.85202 1.58875 1.62426C1.81651 1.39651 2.12541 1.26855 2.44751 1.26855H17.0212" stroke="white" stroke-width="2" stroke-linecap="round" stroke-linejoin="round"/>
</svg>
