<svg width="22" height="23" viewBox="0 0 22 23" fill="none" xmlns="http://www.w3.org/2000/svg">
<path d="M0.233032 10.0046C0.233032 10.4226 0.571975 10.7616 0.990073 10.7616C1.40817 10.7616 1.74711 10.4226 1.74711 10.0046H0.233032ZM2.07366 15.1791C1.91366 14.7928 1.47081 14.6094 1.08454 14.7694C0.698269 14.9294 0.514833 15.3722 0.674831 15.7585L2.07366 15.1791ZM12.8323 21.3801L13.3795 20.4557L12.0765 19.6844L11.5293 20.6089L12.8323 21.3801ZM8.78839 20.4557L9.33559 21.3801L10.6385 20.6089L10.0913 19.6844L8.78839 20.4557ZM11.5293 20.6089C11.3348 20.9375 10.8331 20.9375 10.6385 20.6089L9.33559 21.3801C10.1165 22.6993 12.0514 22.6993 12.8323 21.3801L11.5293 20.6089ZM9.56987 2.18181H12.598V0.667725H9.56987V2.18181ZM20.4208 10.0046V11.0139H21.9349V10.0046H20.4208ZM6.84704 17.8188C5.57982 17.7969 4.91581 17.7164 4.39533 17.5008L3.81592 18.8996C4.62845 19.2361 5.5539 19.3108 6.82096 19.3326L6.84704 17.8188ZM0.674831 15.7585C1.2639 17.1806 2.39379 18.3105 3.81592 18.8996L4.39533 17.5008C3.34419 17.0653 2.50906 16.2303 2.07366 15.1791L0.674831 15.7585ZM20.4208 11.0139C20.4208 12.2001 20.4204 13.0518 20.3746 13.7239C20.3291 14.3891 20.2417 14.823 20.0942 15.1791L21.4931 15.7585C21.7298 15.1872 21.8344 14.5693 21.8851 13.8269C21.9353 13.0914 21.9349 12.1794 21.9349 11.0139H20.4208ZM15.3469 19.3326C16.614 19.3108 17.5395 19.2361 18.3519 18.8996L17.7726 17.5008C17.2521 17.7164 16.588 17.7969 15.3209 17.8188L15.3469 19.3326ZM20.0942 15.1791C19.6588 16.2303 18.8237 17.0653 17.7726 17.5008L18.3519 18.8996C19.7741 18.3105 20.904 17.1806 21.4931 15.7585L20.0942 15.1791ZM12.598 2.18181C14.2647 2.18181 15.4617 2.1826 16.3952 2.27137C17.3176 2.35906 17.9045 2.52725 18.3723 2.81397L19.1635 1.523C18.4177 1.066 17.5717 0.862325 16.5386 0.764091C15.5167 0.666927 14.2355 0.667725 12.598 0.667725V2.18181ZM21.9349 10.0046C21.9349 8.36714 21.9357 7.08592 21.8385 6.06402C21.7403 5.03086 21.5366 4.18489 21.0796 3.43913L19.7886 4.23024C20.0754 4.69812 20.2435 5.28501 20.3313 6.20733C20.42 7.14093 20.4208 8.33782 20.4208 10.0046H21.9349ZM18.3723 2.81397C18.9496 3.1677 19.4349 3.65301 19.7886 4.23024L21.0796 3.43913C20.6011 2.65818 19.9445 2.00157 19.1635 1.523L18.3723 2.81397ZM9.56987 0.667725C7.93245 0.667725 6.65122 0.666927 5.62933 0.764091C4.59617 0.862325 3.75019 1.066 3.00444 1.523L3.79554 2.81397C4.26343 2.52725 4.85031 2.35906 5.77264 2.27137C6.70624 2.1826 7.90313 2.18181 9.56987 2.18181V0.667725ZM1.74711 10.0046C1.74711 8.33782 1.74791 7.14093 1.83668 6.20733C1.92437 5.28501 2.09256 4.69812 2.37927 4.23024L1.08831 3.43913C0.631307 4.18489 0.427632 5.03086 0.329399 6.06402C0.232235 7.08592 0.233032 8.36714 0.233032 10.0046H1.74711ZM3.00444 1.523C2.22348 2.00157 1.56688 2.65818 1.08831 3.43913L2.37927 4.23024C2.733 3.65301 3.21832 3.1677 3.79554 2.81397L3.00444 1.523ZM10.0913 19.6844C9.88641 19.3382 9.70654 19.0326 9.53161 18.7926C9.3473 18.5398 9.13603 18.3122 8.84297 18.1417L8.08175 19.4506C8.1296 19.4784 8.1948 19.5291 8.30798 19.6844C8.43049 19.8525 8.56891 20.0848 8.78839 20.4557L10.0913 19.6844ZM6.82096 19.3326C7.26417 19.3403 7.54491 19.3459 7.75891 19.3696C7.95888 19.3918 8.03639 19.4242 8.08175 19.4506L8.84297 18.1417C8.54746 17.9698 8.23996 17.8995 7.92554 17.8647C7.62517 17.8315 7.26215 17.826 6.84704 17.8188L6.82096 19.3326ZM13.3795 20.4557C13.5989 20.0848 13.7373 19.8525 13.8599 19.6844C13.973 19.5291 14.0382 19.4784 14.0861 19.4506L13.3249 18.1417C13.0319 18.3122 12.8205 18.5398 12.6363 18.7926C12.4614 19.0326 12.2815 19.3382 12.0765 19.6844L13.3795 20.4557ZM15.3209 17.8188C14.9057 17.826 14.5427 17.8315 14.2423 17.8647C13.9279 17.8995 13.6204 17.9698 13.3249 18.1417L14.0861 19.4506C14.1315 19.4242 14.209 19.3918 14.409 19.3696C14.623 19.3459 14.9037 19.3403 15.3469 19.3326L15.3209 17.8188Z" fill="white"/>
<path fill-rule="evenodd" clip-rule="evenodd" d="M12.0253 4.90065C12.0253 5.24911 11.836 5.55335 11.5546 5.71613V5.84207H14.8496C15.6295 5.84207 16.2617 6.4743 16.2617 7.2542V12.9027C16.2617 13.6826 15.6295 14.3149 14.8496 14.3149H7.3182C6.5383 14.3149 5.90607 13.6826 5.90607 12.9027V7.2542C5.90607 6.4743 6.5383 5.84207 7.3182 5.84207H10.6132V5.71613C10.3318 5.55335 10.1425 5.24911 10.1425 4.90065C10.1425 4.38072 10.5639 3.95923 11.0839 3.95923C11.6038 3.95923 12.0253 4.38072 12.0253 4.90065ZM7.3182 6.78349H10.6132H11.5546H14.8496C15.1095 6.78349 15.3203 6.99424 15.3203 7.2542V12.9027C15.3203 13.1627 15.1095 13.3734 14.8496 13.3734H7.3182C7.05823 13.3734 6.84749 13.1627 6.84749 12.9027V7.2542C6.84749 6.99424 7.05823 6.78349 7.3182 6.78349ZM12.496 9.3724C12.496 8.98246 12.8121 8.66633 13.2021 8.66633C13.592 8.66633 13.9081 8.98246 13.9081 9.3724C13.9081 9.76233 13.592 10.0785 13.2021 10.0785C12.8121 10.0785 12.496 9.76233 12.496 9.3724ZM13.2021 7.72491C12.2922 7.72491 11.5546 8.46251 11.5546 9.3724C11.5546 10.2823 12.2922 11.0199 13.2021 11.0199C14.112 11.0199 14.8496 10.2823 14.8496 9.3724C14.8496 8.46251 14.112 7.72491 13.2021 7.72491ZM8.96568 8.66633C8.57573 8.66633 8.25962 8.98246 8.25962 9.3724C8.25962 9.76233 8.57573 10.0785 8.96568 10.0785C9.35563 10.0785 9.67175 9.76233 9.67175 9.3724C9.67175 8.98246 9.35563 8.66633 8.96568 8.66633ZM7.3182 9.3724C7.3182 8.46251 8.0558 7.72491 8.96568 7.72491C9.87557 7.72491 10.6132 8.46251 10.6132 9.3724C10.6132 10.2823 9.87557 11.0199 8.96568 11.0199C8.0558 11.0199 7.3182 10.2823 7.3182 9.3724ZM10.5635 11.7508C10.4472 11.5183 10.1645 11.424 9.93195 11.5403C9.69943 11.6566 9.60518 11.9393 9.72144 12.1718C9.99208 12.7131 10.6048 12.9027 11.0839 12.9027C11.563 12.9027 12.1757 12.7131 12.4463 12.1718C12.5626 11.9393 12.4683 11.6566 12.2358 11.5403C12.0033 11.424 11.7206 11.5183 11.6043 11.7508C11.5611 11.8371 11.3893 11.9613 11.0839 11.9613C10.7785 11.9613 10.6066 11.8371 10.5635 11.7508Z" fill="white"/>
</svg>
