<svg width="47" height="47" viewBox="0 0 47 47" fill="none" xmlns="http://www.w3.org/2000/svg">
<rect x="0.797607" y="0.748413" width="46" height="46" rx="6" fill="#00BA9D"/>
<path d="M20.7976 21.7484L23.7976 32.7484L26.7976 21.7484H20.7976V21.7484Z" fill="black"/>
<path d="M37.7976 19.7484C37.711 19.5664 37.6388 19.3844 37.4944 19.2164L32.9167 13.6724C32.4402 13.0844 31.7182 12.7484 30.9384 12.7484H25.7976L29.4077 19.7484H37.7832H37.7976Z" fill="black"/>
<path d="M26.7976 19.7484L24.2976 14.7484L21.7976 19.7484H26.7976V19.7484Z" fill="black"/>
<path d="M22.7976 12.7484H17.6568C16.877 12.7484 16.1694 13.0844 15.6785 13.6724L11.1009 19.2164V19.2164C10.9709 19.3844 10.8843 19.5664 10.7976 19.7484H19.1731L22.7832 12.7484L22.7976 12.7484Z" fill="black"/>
<path d="M25.7976 35.7484L37.4447 23.2865C37.5917 23.1166 37.6947 22.9325 37.7976 22.7484H29.4888L25.8123 35.7484H25.7976Z" fill="black"/>
<path d="M10.7976 22.7484C10.9005 22.9325 10.9888 23.1308 11.1505 23.2865L22.7976 35.7484L19.1064 22.7484H10.7976V22.7484Z" fill="black"/>
</svg>
