<svg width="47" height="47" viewBox="0 0 47 47" fill="none" xmlns="http://www.w3.org/2000/svg">
<rect x="0.797607" y="0.748413" width="46" height="46" rx="6" fill="#568FFF"/>
<path d="M12.7591 20.0817C13.2848 20.0817 13.7207 19.6458 13.7207 19.1202V16.5561C13.7207 14.9664 15.0156 13.6715 16.6053 13.6715H19.1694C19.695 13.6715 20.1309 13.2356 20.1309 12.71C20.1309 12.1843 19.695 11.7484 19.1694 11.7484H16.6053C13.9515 11.7484 11.7976 13.9023 11.7976 16.5561V19.1202C11.7976 19.6458 12.2335 20.0817 12.7591 20.0817Z" fill="#231F20"/>
<path d="M19.1694 34.8253H16.6053C15.0156 34.8253 13.7207 33.5305 13.7207 31.9407V29.3766C13.7207 28.851 13.2848 28.4151 12.7591 28.4151C12.2335 28.4151 11.7976 28.851 11.7976 29.3766V31.9407C11.7976 34.5946 13.9515 36.7484 16.6053 36.7484H19.1694C19.695 36.7484 20.1309 36.3125 20.1309 35.7869C20.1309 35.2612 19.695 34.8253 19.1694 34.8253Z" fill="#231F20"/>
<path d="M35.836 28.4151C35.3104 28.4151 34.8745 28.851 34.8745 29.3766V31.9407C34.8745 33.5305 33.5796 34.8253 31.9899 34.8253H29.4258C28.9001 34.8253 28.4642 35.2612 28.4642 35.7869C28.4642 36.3125 28.9001 36.7484 29.4258 36.7484H31.9899C34.6437 36.7484 36.7976 34.5946 36.7976 31.9407V29.3766C36.7976 28.851 36.3617 28.4151 35.836 28.4151Z" fill="#231F20"/>
<path d="M31.9899 11.7484H29.4258C28.9001 11.7484 28.4642 12.1843 28.4642 12.71C28.4642 13.2356 28.9001 13.6715 29.4258 13.6715H31.9899C33.5796 13.6715 34.8745 14.9664 34.8745 16.5561V19.1202C34.8745 19.6458 35.3104 20.0817 35.836 20.0817C36.3617 20.0817 36.7976 19.6458 36.7976 19.1202V16.5561C36.7976 13.9023 34.6437 11.7484 31.9899 11.7484Z" fill="#231F20"/>
<rect x="17.3531" y="21.9336" width="14.8148" height="8.33333" rx="2.75" fill="#231F20"/>
<path d="M17.3531 19.1558C17.3531 19.662 17.7912 20.0817 18.3193 20.0817H31.2018C31.73 20.0817 32.168 19.662 32.168 19.1558C32.168 18.6496 31.73 18.2299 31.2018 18.2299H18.3193C17.7912 18.2299 17.3531 18.6496 17.3531 19.1558Z" fill="#231F20"/>
</svg>
