<svg width="165" height="29" viewBox="0 0 165 29" fill="none" xmlns="http://www.w3.org/2000/svg">
<g filter="url(#filter0_i_19_71)">
<path d="M0 8C0 3.58172 3.58172 0 8 0H157C161.418 0 165 3.58172 165 8V21C165 25.4183 161.418 29 157 29H8C3.58172 29 0 25.4183 0 21V8Z" fill="#535353"/>
<path d="M0 8C0 3.58172 3.58172 0 8 0H157C161.418 0 165 3.58172 165 8V21C165 25.4183 161.418 29 157 29H8C3.58172 29 0 25.4183 0 21V8Z" fill="url(#paint0_radial_19_71)"/>
<path d="M0 8C0 3.58172 3.58172 0 8 0H157C161.418 0 165 3.58172 165 8V21C165 25.4183 161.418 29 157 29H8C3.58172 29 0 25.4183 0 21V8Z" fill="url(#paint1_radial_19_71)"/>
<path d="M0 8C0 3.58172 3.58172 0 8 0H157C161.418 0 165 3.58172 165 8V21C165 25.4183 161.418 29 157 29H8C3.58172 29 0 25.4183 0 21V8Z" fill="url(#paint2_radial_19_71)"/>
<path d="M0 8C0 3.58172 3.58172 0 8 0H157C161.418 0 165 3.58172 165 8V21C165 25.4183 161.418 29 157 29H8C3.58172 29 0 25.4183 0 21V8Z" fill="url(#paint3_radial_19_71)" fill-opacity="0.5"/>
</g>
<defs>
<filter id="filter0_i_19_71" x="0" y="0" width="165" height="29" filterUnits="userSpaceOnUse" color-interpolation-filters="sRGB">
<feFlood flood-opacity="0" result="BackgroundImageFix"/>
<feBlend mode="normal" in="SourceGraphic" in2="BackgroundImageFix" result="shape"/>
<feColorMatrix in="SourceAlpha" type="matrix" values="0 0 0 0 0 0 0 0 0 0 0 0 0 0 0 0 0 0 127 0" result="hardAlpha"/>
<feOffset/>
<feGaussianBlur stdDeviation="5"/>
<feComposite in2="hardAlpha" operator="arithmetic" k2="-1" k3="1"/>
<feColorMatrix type="matrix" values="0 0 0 0 1 0 0 0 0 1 0 0 0 0 1 0 0 0 0.8 0"/>
<feBlend mode="normal" in2="shape" result="effect1_innerShadow_19_71"/>
</filter>
<radialGradient id="paint0_radial_19_71" cx="0" cy="0" r="1" gradientUnits="userSpaceOnUse" gradientTransform="translate(72.1875 -9.0625) rotate(33.9357) scale(57.6287 14.638)">
<stop offset="0.212469" stop-color="#EF7DF1"/>
<stop offset="1" stop-color="#EF7DF1"/>
</radialGradient>
<radialGradient id="paint1_radial_19_71" cx="0" cy="0" r="1" gradientUnits="userSpaceOnUse" gradientTransform="translate(31.875 11.7812) rotate(6.21616) scale(133.912 15.5239)">
<stop stop-color="#36F3AF"/>
<stop offset="1" stop-color="#36F3AF" stop-opacity="0.5"/>
</radialGradient>
<radialGradient id="paint2_radial_19_71" cx="0" cy="0" r="1" gradientUnits="userSpaceOnUse" gradientTransform="translate(105 -3.625) rotate(98.5063) scale(38.0277 213.515)">
<stop stop-color="#8528FB"/>
<stop offset="1" stop-color="#56544A" stop-opacity="0.12"/>
</radialGradient>
<radialGradient id="paint3_radial_19_71" cx="0" cy="0" r="1" gradientUnits="userSpaceOnUse" gradientTransform="translate(25.3125 11.3281) rotate(17.172) scale(59.8557 71.9342)">
<stop stop-color="#00C3F9"/>
<stop offset="1" stop-color="#00C3F9" stop-opacity="0.5"/>
</radialGradient>
</defs>
</svg>
