<svg width="25" height="25" viewBox="0 0 25 25" fill="none" xmlns="http://www.w3.org/2000/svg">
<path d="M24.2188 12.1094C24.2188 18.7988 18.7988 24.2188 12.1094 24.2188C5.41992 24.2188 0 18.7988 0 12.1094C0 5.41992 5.41992 0 12.1094 0C18.7988 0 24.2188 5.41992 24.2188 12.1094ZM17.207 10.6982L13.6719 14.3848V5.46875C13.6719 4.81934 13.1494 4.29688 12.5 4.29688H11.7188C11.0693 4.29688 10.5469 4.81934 10.5469 5.46875V14.3848L7.01172 10.6982C6.55762 10.2246 5.80078 10.2148 5.33691 10.6787L4.80469 11.2158C4.3457 11.6748 4.3457 12.417 4.80469 12.8711L11.2793 19.3506C11.7383 19.8096 12.4805 19.8096 12.9346 19.3506L19.4141 12.8711C19.873 12.4121 19.873 11.6699 19.4141 11.2158L18.8818 10.6787C18.418 10.2148 17.6611 10.2246 17.207 10.6982Z" fill="#A9A5A5"/>
</svg>
