<svg width="13" height="16" viewBox="0 0 13 16" fill="none" xmlns="http://www.w3.org/2000/svg">
<path d="M11.49 5.40284H7.31184V1.08057H1.04455V14.0474H11.49V5.40284ZM11.0576 4.32227L8.35639 1.52792V4.32227H11.0576ZM0.522274 0H8.35639L12.5346 4.32227V14.5877C12.5346 14.7309 12.4796 14.8684 12.3816 14.9697C12.2837 15.071 12.1508 15.1279 12.0123 15.1279H0.522274C0.383758 15.1279 0.250916 15.071 0.152971 14.9697C0.0550253 14.8684 0 14.7309 0 14.5877V0.540284C0 0.396991 0.0550253 0.259568 0.152971 0.158245C0.250916 0.0569226 0.383758 0 0.522274 0ZM3.13364 7.56397H9.40093V8.64454H3.13364V7.56397ZM3.13364 4.32227H5.74502V5.40284H3.13364V4.32227ZM3.13364 10.8057H9.40093V11.8862H3.13364V10.8057Z" fill="white"/>
</svg>
