<svg width="23" height="23" viewBox="0 0 23 23" fill="none" xmlns="http://www.w3.org/2000/svg">
<path d="M15.1871 19.285C15.0018 19.3056 14.9485 19.3337 14.9287 19.3452L14.9285 19.3453L15.1871 19.285ZM15.1871 19.285C15.389 19.2627 15.6568 19.2571 16.0954 19.2495C17.3413 19.2281 18.2771 19.1552 19.1048 18.8124C20.5397 18.218 21.6799 17.0779 22.2743 15.6429C22.5158 15.0599 22.6204 14.4342 22.6708 13.6966C22.7201 12.974 22.7201 12.0816 22.7201 10.9531V10.9207V9.9283V9.88162C22.7201 8.2967 22.7201 7.04342 22.6246 6.03979C22.527 5.01302 22.3232 4.1556 21.8571 3.39486L21.7292 3.47323L21.8571 3.39486C21.3742 2.60685 20.7117 1.94431 19.9236 1.46141L19.8538 1.57544L19.9236 1.46141C19.1628 0.995231 18.3054 0.791461 17.2787 0.693833L17.2645 0.843146L17.2787 0.693833C16.2749 0.598397 15.0215 0.598404 13.4364 0.598413L13.3902 0.598413H10.4129L10.3667 0.598413C8.78156 0.598404 7.52814 0.598397 6.52442 0.693833C5.49764 0.79146 4.64022 0.99523 3.87948 1.46141C3.09147 1.94431 2.42893 2.60685 1.94603 3.39486C1.47985 4.1556 1.27608 5.01302 1.17845 6.0398C1.08302 7.04352 1.08302 8.29694 1.08303 9.88209L1.08303 9.9283C1.08303 10.4222 1.48343 10.8226 1.97735 10.8226C2.47126 10.8226 2.87166 10.4222 2.87166 9.9283C2.87166 8.28663 2.87261 7.11824 2.95905 6.2091C3.04423 5.31324 3.20607 4.76189 3.47109 4.32941C3.80651 3.78207 4.26669 3.32189 4.81403 2.98647C5.24651 2.72145 5.79786 2.55961 6.69372 2.47443C7.60286 2.38799 8.77125 2.38704 10.4129 2.38704H13.3902C15.0318 2.38704 16.2002 2.38799 17.1094 2.47443C18.0053 2.55961 18.5566 2.72145 18.989 2.98647L15.1871 19.285ZM13.4278 18.5686L13.3066 18.4803C13.4947 18.2221 13.717 17.9808 14.0294 17.799L14.0294 17.799C14.3448 17.6156 14.6698 17.5427 14.9903 17.5072L14.9903 17.5072C15.2846 17.4746 15.6362 17.4686 16.0264 17.4619L16.0646 17.4612C17.3107 17.4397 17.9376 17.3599 18.4203 17.1599C19.4171 16.747 20.2089 15.9552 20.6218 14.9584C20.758 14.6296 20.8422 14.2213 20.8863 13.5749C20.931 12.9204 20.9314 12.089 20.9314 10.9207V9.9283C20.9314 8.28664 20.9305 7.11824 20.8441 6.2091C20.7589 5.31324 20.597 4.7619 20.332 4.32942L20.332 4.32941C19.9966 3.78207 19.5364 3.32189 18.989 2.98647L19.0674 2.85858L13.4278 18.5686ZM13.4278 18.5686L13.3066 18.4803C13.1354 18.7151 12.9608 19.0101 12.7687 19.3346L12.7483 19.369L12.7483 19.369M13.4278 18.5686L12.7483 19.369M12.7483 19.369L12.2103 20.278L12.3347 20.3516L12.2103 20.278C12.0772 20.5029 11.7259 20.503 11.5927 20.2779L11.0547 19.369L11.0357 19.337C10.8432 19.0115 10.6681 18.7157 10.4965 18.4803L10.4965 18.4802C10.3083 18.2221 10.0861 17.9808 9.77366 17.799L9.69823 17.9287L9.77366 17.799C9.45834 17.6156 9.13322 17.5427 8.81275 17.5072L8.81272 17.5072C8.51846 17.4746 8.16686 17.4686 7.77671 17.4619L7.73846 17.4612C6.49231 17.4397 5.86549 17.3599 5.38277 17.1599C4.38604 16.747 3.59416 15.9552 3.1813 14.9584C2.99229 14.5021 2.46914 14.2854 2.01283 14.4744C1.55651 14.6634 1.33981 15.1866 1.52882 15.6429L1.65381 15.5911M12.7483 19.369L1.65381 15.5911M9.64457 20.2037L9.51549 20.2801C9.29821 19.913 9.16628 19.692 9.05104 19.5338L9.64457 20.2037ZM9.64457 20.2037L9.51549 20.2801L10.0535 21.189C10.8793 22.5842 12.9238 22.5842 13.7496 21.189L14.2876 20.2801L14.2876 20.2801M9.64457 20.2037L14.2876 20.2801M1.65381 15.5911L1.52882 15.6429C2.12321 17.0779 3.26331 18.218 4.69829 18.8124C5.52604 19.1552 6.46173 19.2281 7.70764 19.2495C8.14627 19.2571 8.41408 19.2627 8.61594 19.285C8.8013 19.3056 8.85458 19.3337 8.87426 19.3451L8.87455 19.3453M1.65381 15.5911L8.87455 19.3453M14.2876 20.2801C14.5049 19.9129 14.6368 19.6919 14.752 19.5338L14.2876 20.2801ZM8.87455 19.3453C8.89714 19.3584 8.94672 19.3907 9.051 19.5337L8.87455 19.3453ZM13.518 19.8245L12.8774 19.4454M10.2851 19.8245L9.64457 20.2037M7.72304 18.3554L7.71281 18.9496M9.32402 18.5721L9.62281 18.0583" fill="white" stroke="white" stroke-width="0.3"/>
</svg>
